<svg width="125" height="127" viewBox="0 0 125 127" fill="none" xmlns="http://www.w3.org/2000/svg">
<g filter="url(#filter0_d_40_1711)">
<mask id="path-1-inside-1_40_1711" fill="white">
<path d="M117.732 79.4559C121.768 67.1719 121.727 53.9129 117.616 41.6539C113.506 29.3949 105.545 18.7917 94.9194 11.4238C84.2942 4.0559 71.5731 0.317464 58.6509 0.76535C45.7288 1.21324 33.2971 5.82348 23.2075 13.9094C13.1178 21.9953 5.9102 33.1242 2.65812 45.6384C-0.593948 58.1526 0.283556 71.3826 5.15993 83.3577C10.0363 95.3328 18.6506 105.412 29.7198 112.095C40.7889 118.777 53.7207 121.705 66.5888 120.443L60.7293 60.7293L117.732 79.4559Z"/>
</mask>
<path d="M117.732 79.4559C121.768 67.1719 121.727 53.9129 117.616 41.6539C113.506 29.3949 105.545 18.7917 94.9194 11.4238C84.2942 4.0559 71.5731 0.317464 58.6509 0.76535C45.7288 1.21324 33.2971 5.82348 23.2075 13.9094C13.1178 21.9953 5.9102 33.1242 2.65812 45.6384C-0.593948 58.1526 0.283556 71.3826 5.15993 83.3577C10.0363 95.3328 18.6506 105.412 29.7198 112.095C40.7889 118.777 53.7207 121.705 66.5888 120.443L60.7293 60.7293L117.732 79.4559Z" fill="#90A8ED"/>
<path d="M117.732 79.4559C121.768 67.1719 121.727 53.9129 117.616 41.6539C113.506 29.3949 105.545 18.7917 94.9194 11.4238C84.2942 4.0559 71.5731 0.317464 58.6509 0.76535C45.7288 1.21324 33.2971 5.82348 23.2075 13.9094C13.1178 21.9953 5.9102 33.1242 2.65812 45.6384C-0.593948 58.1526 0.283556 71.3826 5.15993 83.3577C10.0363 95.3328 18.6506 105.412 29.7198 112.095C40.7889 118.777 53.7207 121.705 66.5888 120.443L60.7293 60.7293L117.732 79.4559Z" stroke="#0D0D0D" stroke-width="4" mask="url(#path-1-inside-1_40_1711)"/>
</g>
<defs>
<filter id="filter0_d_40_1711" x="0.729248" y="0.729492" width="124" height="126" filterUnits="userSpaceOnUse" color-interpolation-filters="sRGB">
<feFlood flood-opacity="0" result="BackgroundImageFix"/>
<feColorMatrix in="SourceAlpha" type="matrix" values="0 0 0 0 0 0 0 0 0 0 0 0 0 0 0 0 0 0 127 0" result="hardAlpha"/>
<feOffset dx="4" dy="6"/>
<feComposite in2="hardAlpha" operator="out"/>
<feColorMatrix type="matrix" values="0 0 0 0 0 0 0 0 0 0 0 0 0 0 0 0 0 0 1 0"/>
<feBlend mode="normal" in2="BackgroundImageFix" result="effect1_dropShadow_40_1711"/>
<feBlend mode="normal" in="SourceGraphic" in2="effect1_dropShadow_40_1711" result="shape"/>
</filter>
</defs>
</svg>
