<svg width="33" height="33" viewBox="0 0 33 33" fill="none" xmlns="http://www.w3.org/2000/svg">
<g filter="url(#filter0_d_47_2177)">
<rect width="32" height="32" rx="16" fill="#0D0D0D"/>
<g clip-path="url(#clip0_47_2177)">
<path d="M11.443 9.3501C12.082 9.3501 12.673 9.4001 13.213 9.5481C13.703 9.63814 14.1708 9.82293 14.59 10.0921C14.984 10.3391 15.279 10.6861 15.475 11.1311C15.672 11.5761 15.77 12.1211 15.77 12.7141C15.77 13.4071 15.623 14.0001 15.279 14.4451C14.984 14.8911 14.492 15.2861 13.902 15.5831C14.738 15.8311 15.377 16.2761 15.77 16.8691C16.164 17.4631 16.41 18.2051 16.41 19.0461C16.41 19.7391 16.262 20.3321 16.016 20.8271C15.77 21.3221 15.377 21.7671 14.934 22.0641C14.4528 22.3825 13.9208 22.6165 13.361 22.7561C12.771 22.9051 12.181 23.0041 11.591 23.0041H5V9.3501H11.443ZM11.049 14.8901C11.59 14.8901 12.033 14.7421 12.377 14.4951C12.721 14.2481 12.869 13.8021 12.869 13.2581C12.869 12.9611 12.819 12.6641 12.721 12.4671C12.623 12.2691 12.475 12.1201 12.279 11.9721C12.082 11.8731 11.885 11.7741 11.639 11.7251C11.393 11.6751 11.148 11.6751 10.852 11.6751H8V14.8911H11.05L11.049 14.8901ZM11.197 20.7281C11.492 20.7281 11.787 20.6781 12.033 20.6291C12.2814 20.5819 12.5163 20.4805 12.721 20.3321C12.9214 20.1873 13.089 20.002 13.213 19.7881C13.311 19.5411 13.41 19.2441 13.41 18.8981C13.41 18.2051 13.213 17.7101 12.82 17.3641C12.426 17.0671 11.885 16.9191 11.246 16.9191H8V20.7291L11.197 20.7281ZM20.689 20.6781C21.082 21.0741 21.672 21.2721 22.459 21.2721C23 21.2721 23.492 21.1241 23.885 20.8771C24.279 20.5801 24.525 20.2831 24.623 19.9861H27.033C26.639 21.1731 26.049 22.0141 25.263 22.5581C24.475 23.0531 23.541 23.3501 22.41 23.3501C21.6864 23.3523 20.9688 23.2179 20.295 22.9541C19.6887 22.7266 19.148 22.3529 18.721 21.8661C18.2643 21.4107 17.9267 20.8498 17.738 20.2331C17.492 19.5901 17.393 18.8981 17.393 18.1061C17.393 17.3641 17.492 16.6721 17.738 16.0281C17.9745 15.4082 18.3245 14.8378 18.77 14.3461C19.213 13.9011 19.754 13.5061 20.344 13.2581C21.0007 12.9942 21.7022 12.8597 22.41 12.8621C23.246 12.8621 23.984 13.0111 24.623 13.3571C25.263 13.7031 25.754 14.0991 26.148 14.6931C26.5499 15.2636 26.8494 15.8998 27.033 16.5731C27.131 17.2651 27.18 17.9581 27.131 18.7491H20C20 19.5411 20.295 20.2831 20.689 20.6791V20.6781ZM23.787 15.4841C23.443 15.1381 22.902 14.9401 22.262 14.9401C21.82 14.9401 21.475 15.0391 21.18 15.1871C20.885 15.3361 20.689 15.5341 20.492 15.7321C20.311 15.9234 20.1912 16.1643 20.148 16.4241C20.098 16.6721 20.049 16.8691 20.049 17.0671H24.475C24.377 16.3251 24.131 15.8311 23.787 15.4841ZM19.459 10.2901H24.967V11.6261H19.46V10.2901H19.459Z" fill="#FAFAFA"/>
</g>
<rect x="0.5" y="0.5" width="31" height="31" rx="15.5" stroke="#FAFAFA"/>
</g>
<defs>
<filter id="filter0_d_47_2177" x="0" y="0" width="33" height="33" filterUnits="userSpaceOnUse" color-interpolation-filters="sRGB">
<feFlood flood-opacity="0" result="BackgroundImageFix"/>
<feColorMatrix in="SourceAlpha" type="matrix" values="0 0 0 0 0 0 0 0 0 0 0 0 0 0 0 0 0 0 127 0" result="hardAlpha"/>
<feOffset dx="1" dy="1"/>
<feComposite in2="hardAlpha" operator="out"/>
<feColorMatrix type="matrix" values="0 0 0 0 1 0 0 0 0 1 0 0 0 0 1 0 0 0 1 0"/>
<feBlend mode="normal" in2="BackgroundImageFix" result="effect1_dropShadow_47_2177"/>
<feBlend mode="normal" in="SourceGraphic" in2="effect1_dropShadow_47_2177" result="shape"/>
</filter>
<clipPath id="clip0_47_2177">
<rect width="24" height="24" fill="white" transform="translate(4 4)"/>
</clipPath>
</defs>
</svg>
