<svg width="120" height="120" viewBox="0 0 120 120" fill="none" xmlns="http://www.w3.org/2000/svg">
<g filter="url(#filter0_d_26_764)">
<path d="M22.5 100.75L15 7H105L97.5 100.75L60 112L22.5 100.75Z" fill="#1172B8"/>
<path d="M60 110.956L23.4423 99.9887L16.0832 8H103.917L96.5577 99.9887L60 110.956Z" stroke="#0D0D0D" stroke-width="2"/>
</g>
<path d="M97.5 14.5H60V106.375L90 97L97.5 14.5Z" fill="#33AADD"/>
<path d="M73.125 61.375H35.625L33.75 48.25L63.75 38.875H33.75L31.875 27.625H90L88.125 40.75L63.75 50.125H86.25L82.5 85.75L60 93.25L37.5 85.75L35.625 67H46.875L48.75 76.375L60 80.125L71.25 76.375L73.125 61.375Z" fill="white"/>
<defs>
<filter id="filter0_d_26_764" x="15" y="7" width="94" height="111" filterUnits="userSpaceOnUse" color-interpolation-filters="sRGB">
<feFlood flood-opacity="0" result="BackgroundImageFix"/>
<feColorMatrix in="SourceAlpha" type="matrix" values="0 0 0 0 0 0 0 0 0 0 0 0 0 0 0 0 0 0 127 0" result="hardAlpha"/>
<feOffset dx="4" dy="6"/>
<feComposite in2="hardAlpha" operator="out"/>
<feColorMatrix type="matrix" values="0 0 0 0 0 0 0 0 0 0 0 0 0 0 0 0 0 0 1 0"/>
<feBlend mode="normal" in2="BackgroundImageFix" result="effect1_dropShadow_26_764"/>
<feBlend mode="normal" in="SourceGraphic" in2="effect1_dropShadow_26_764" result="shape"/>
</filter>
</defs>
</svg>
