<svg width="33" height="33" viewBox="0 0 33 33" fill="none" xmlns="http://www.w3.org/2000/svg">
<g filter="url(#filter0_d_47_2165)">
<rect width="32" height="32" rx="16" fill="#0D0D0D"/>
<g clip-path="url(#clip0_47_2165)">
<path d="M10.94 7.00002C10.9397 7.53046 10.7288 8.03906 10.3535 8.41394C9.97825 8.78883 9.46944 8.99929 8.939 8.99902C8.40857 8.99876 7.89997 8.78779 7.52508 8.41253C7.1502 8.03727 6.93974 7.52846 6.94 6.99802C6.94027 6.46759 7.15124 5.95899 7.5265 5.5841C7.90176 5.20922 8.41057 4.99876 8.941 4.99902C9.47144 4.99929 9.98004 5.21026 10.3549 5.58552C10.7298 5.96078 10.9403 6.46959 10.94 7.00002ZM11 10.48H7V23H11V10.48ZM17.32 10.48H13.34V23H17.28V16.43C17.28 12.77 22.05 12.43 22.05 16.43V23H26V15.07C26 8.90002 18.94 9.13002 17.28 12.16L17.32 10.48Z" fill="#FAFAFA"/>
</g>
<rect x="0.5" y="0.5" width="31" height="31" rx="15.5" stroke="#FAFAFA"/>
</g>
<defs>
<filter id="filter0_d_47_2165" x="0" y="0" width="33" height="33" filterUnits="userSpaceOnUse" color-interpolation-filters="sRGB">
<feFlood flood-opacity="0" result="BackgroundImageFix"/>
<feColorMatrix in="SourceAlpha" type="matrix" values="0 0 0 0 0 0 0 0 0 0 0 0 0 0 0 0 0 0 127 0" result="hardAlpha"/>
<feOffset dx="1" dy="1"/>
<feComposite in2="hardAlpha" operator="out"/>
<feColorMatrix type="matrix" values="0 0 0 0 1 0 0 0 0 1 0 0 0 0 1 0 0 0 1 0"/>
<feBlend mode="normal" in2="BackgroundImageFix" result="effect1_dropShadow_47_2165"/>
<feBlend mode="normal" in="SourceGraphic" in2="effect1_dropShadow_47_2165" result="shape"/>
</filter>
<clipPath id="clip0_47_2165">
<rect x="4" y="2" width="24" height="24" fill="white"/>
</clipPath>
</defs>
</svg>
