<svg width="96" height="96" viewBox="0 0 96 96" fill="none" xmlns="http://www.w3.org/2000/svg">
<path d="M33.7443 40.7361V40.1268C33.7443 38.5821 34.9815 37.3011 36.576 37.1946L48.1899 36.4191L64.251 60.0705V39.3123L60.117 38.7612V38.472C60.117 36.909 61.3824 35.6196 62.9973 35.5368L73.5648 34.9956V36.5163C73.5648 37.23 73.0338 37.8408 72.3063 37.9638L69.7632 38.394V72.0111L66.5718 73.1085C63.9054 74.0256 60.9372 73.044 59.4108 70.7409L43.8183 47.2116V69.669L48.6174 70.5873L48.5508 71.0325C48.3411 72.4269 47.1372 73.4817 45.681 73.5465L33.7443 74.0778C33.5865 72.5781 34.7103 71.2368 36.2607 71.0739L37.8309 70.9089V40.9656L33.7443 40.7361Z" fill="#0D0D0D"/>
<path fill-rule="evenodd" clip-rule="evenodd" d="M62.0247 8.90034L14.1704 12.1676C11.304 12.3633 9.08203 14.6678 9.08203 17.445V63.9897C9.08203 66.5991 9.98029 69.1344 11.6353 71.1963L21.9534 84.0501C23.6217 86.1282 26.247 87.2727 28.9631 87.1056L82.0758 83.8362C84.798 83.6685 86.9172 81.4857 86.9172 78.8496V25.9328C86.9172 24.3018 86.0937 22.7735 84.7107 21.8385L67.8975 10.4709C66.1839 9.31239 64.1106 8.75793 62.0247 8.90034ZM16.5434 18.171C15.8778 17.6782 16.1946 16.6517 17.0307 16.5917L62.3466 13.3413C63.7905 13.2378 65.2251 13.6354 66.3927 14.4626L75.4851 20.9044C75.8301 21.149 75.6684 21.6769 75.2409 21.7001L27.2516 24.3101C25.7993 24.3891 24.3658 23.9624 23.211 23.1075L16.5434 18.171ZM25.0007 32.4921C25.0007 30.933 26.2602 29.6453 27.8708 29.5576L78.609 26.7944C80.1789 26.7089 81.5001 27.916 81.5001 29.4355V75.2559C81.5001 76.812 80.2452 78.0984 78.6378 78.1899L28.2207 81.0585C26.4738 81.1581 25.0007 79.8156 25.0007 78.1245V32.4921Z" fill="#0D0D0D"/>
</svg>
