<svg width="1080" height="768" viewBox="0 0 1080 768" fill="none" xmlns="http://www.w3.org/2000/svg">
<g clip-path="url(#clip0_461_1137)">
<path d="M1080 0H0V768H1080V0Z" fill="url(#paint0_radial_461_1137)"/>
<path d="M82.125 43.5C82.125 40.7041 79.8584 38.4375 77.0625 38.4375C74.2666 38.4375 72 40.7041 72 43.5C72 46.2959 74.2666 48.5625 77.0625 48.5625C79.8584 48.5625 82.125 46.2959 82.125 43.5Z" fill="#66AFFF"/>
<path d="M82.125 57C82.125 54.2041 79.8584 51.9375 77.0625 51.9375C74.2666 51.9375 72 54.2041 72 57C72 59.7959 74.2666 62.0625 77.0625 62.0625C79.8584 62.0625 82.125 59.7959 82.125 57Z" fill="#09092A"/>
<path d="M95.625 43.5C95.625 40.7041 93.3584 38.4375 90.5625 38.4375C87.7666 38.4375 85.5 40.7041 85.5 43.5C85.5 46.2959 87.7666 48.5625 90.5625 48.5625C93.3584 48.5625 95.625 46.2959 95.625 43.5Z" fill="#09092A"/>
<path d="M95.625 57C95.625 54.2041 93.3584 51.9375 90.5625 51.9375C87.7666 51.9375 85.5 54.2041 85.5 57C85.5 59.7959 87.7666 62.0625 90.5625 62.0625C93.3584 62.0625 95.625 59.7959 95.625 57Z" fill="#66AFFF"/>
<path d="M112.153 63.4861C108.306 63.4861 105.43 62.0281 103.446 60.3271L105.997 56.8441C107.577 58.2211 109.561 59.1526 112.032 59.1526C114.138 59.1526 115.677 58.4641 115.677 57.2086C115.677 55.8316 113.895 55.3456 111.627 54.8191C108.346 54.0901 104.094 53.0776 104.094 48.3796C104.094 44.0056 107.941 41.8591 112.518 41.8591C116.041 41.8591 118.674 43.1146 120.537 44.5726L117.985 48.0961C116.487 46.9621 114.745 46.1926 112.639 46.1926C110.857 46.1926 109.399 46.7596 109.399 47.9746C109.399 49.3516 111.141 49.7971 113.449 50.2831C116.73 51.0121 120.982 52.0246 120.982 56.7226C120.982 61.0966 117.094 63.4861 112.153 63.4861ZM149.431 41.8591C154.089 41.8591 157.126 44.8966 157.126 49.5541V63.0001H151.861V51.1336C151.861 48.6226 150.282 46.9621 147.811 46.9621C145.219 46.9621 143.478 48.6631 143.478 51.2146V63.0001H138.213V51.1336C138.213 48.6226 136.593 46.9621 134.122 46.9621C131.571 46.9621 129.789 48.6631 129.789 51.2146V63.0001H124.524V42.3451H129.789V44.4916C131.328 42.7501 133.393 41.8591 135.904 41.8591C138.82 41.8591 141.088 43.1146 142.384 45.2206C144.045 43.0336 146.434 41.8591 149.431 41.8591ZM177.453 42.3451H182.718V63.0001H177.453V60.5296C175.792 62.3521 173.484 63.4861 170.73 63.4861C164.979 63.4861 160.645 58.8286 160.645 52.6726C160.645 46.5166 164.979 41.8591 170.73 41.8591C173.484 41.8591 175.792 42.9931 177.453 44.8156V42.3451ZM171.742 58.3831C175.023 58.3831 177.453 55.9126 177.453 52.6726C177.453 49.4326 175.023 46.9621 171.742 46.9621C168.502 46.9621 166.072 49.4326 166.072 52.6726C166.072 55.9126 168.502 58.3831 171.742 58.3831ZM198.944 42.0211H199.835V47.4481H198.944C195.178 47.4481 192.991 49.6756 192.991 53.1991V63.0001H187.726V42.3451H192.991V45.0181C194.489 43.1146 196.514 42.0211 198.944 42.0211ZM215.758 63.0001C219.849 63.0001 222.765 65.2681 223.453 69.0751L218.026 70.5331C217.864 69.0346 216.609 68.0626 214.746 68.0626H207.982C204.135 68.0626 201.583 65.8351 201.583 62.5546C201.583 60.4486 202.677 58.4236 204.378 57.3706C202.636 55.7506 201.624 53.5231 201.624 50.9311C201.624 45.7471 205.755 41.8591 211.303 41.8591C212.964 41.8591 214.462 42.2236 215.799 42.8311C216.406 40.6036 218.391 39.2266 221.104 39.2266H222.805V44.0866H221.347C220.294 44.0866 219.444 44.6536 219.241 45.5851C220.375 47.0431 221.023 48.9061 221.023 50.9311C221.023 56.1151 216.811 60.0031 211.303 60.0031C210.088 60.0031 208.954 59.8006 207.901 59.4766C207.253 59.8816 206.848 60.5701 206.848 61.2586C206.848 62.2711 207.739 63.0001 209.035 63.0001H215.758ZM211.303 46.8406C208.833 46.8406 207.01 48.5821 207.01 50.9311C207.01 53.2801 208.833 55.0216 211.303 55.0216C213.733 55.0216 215.596 53.2801 215.596 50.9311C215.596 48.5821 213.733 46.8406 211.303 46.8406Z" fill="#09092A"/>
<g filter="url(#filter0_d_461_1137)">
<path d="M993 29.625H908.25C899.966 29.625 893.25 36.3407 893.25 44.625V55.875C893.25 64.1593 899.966 70.875 908.25 70.875H993C1001.28 70.875 1008 64.1593 1008 55.875V44.625C1008 36.3407 1001.28 29.625 993 29.625Z" fill="#F1F2F3"/>
<path d="M913.755 55.9966C912.855 55.9966 912.39 55.8616 912 55.6726V53.6071C912.323 53.7151 912.622 53.7961 913.177 53.7961C913.935 53.7961 914.43 53.4586 914.43 52.4596V46.2226H917.212V52.4866C917.212 54.8086 916.027 55.9966 913.755 55.9966ZM922.11 56.0371C919.935 56.0371 918.247 54.7141 918.247 52.4326V52.3246C918.247 50.0566 919.935 48.6256 922.125 48.6256C924.293 48.6256 925.973 50.0161 925.973 52.2571V52.3651C925.973 54.6601 924.285 56.0371 922.11 56.0371ZM922.125 54.2416C923.025 54.2416 923.512 53.5666 923.512 52.3921V52.2841C923.512 51.0961 923.04 50.4346 922.125 50.4346C921.217 50.4346 920.715 51.0691 920.715 52.2571V52.3651C920.715 53.5801 921.188 54.2416 922.125 54.2416ZM928.29 48.1396C927.54 48.1396 926.97 47.6131 926.97 46.8976C926.97 46.1821 927.54 45.6421 928.29 45.6421C929.047 45.6421 929.633 46.1821 929.633 46.8976C929.633 47.6131 929.047 48.1396 928.29 48.1396ZM927.09 55.8751V48.8146H929.505V55.8751H927.09ZM931.005 55.8751V48.8146H933.42V49.9486C933.803 49.2196 934.568 48.6256 935.745 48.6256C937.11 48.6256 938.055 49.4761 938.055 51.2851V55.8751H935.633V51.7711C935.633 50.9746 935.325 50.5831 934.62 50.5831C933.908 50.5831 933.42 51.0151 933.42 51.9196V55.8751H931.005ZM943.628 55.8751L941.497 48.8146H944.025L945.045 53.0401L946.238 48.8146H948.18L949.23 53.0401L950.378 48.8146H952.672L950.438 55.8751H948.128L947.07 51.9331L945.983 55.8751H943.628ZM955.215 56.0371C953.947 56.0371 952.83 55.4161 952.83 53.9176C952.83 52.2571 954.232 51.6091 956.58 51.6091H957.255V51.4471C957.255 50.7721 957.09 50.3266 956.325 50.3266C955.665 50.3266 955.417 50.7181 955.365 51.1636H953.1C953.205 49.4626 954.54 48.6256 956.475 48.6256C958.418 48.6256 959.655 49.4221 959.655 51.2986V55.8751H957.308V55.0516C956.97 55.5646 956.347 56.0371 955.215 56.0371ZM956.055 54.4036C956.745 54.4036 957.255 54.0121 957.255 53.4046V52.9726H956.617C955.65 52.9726 955.215 53.1616 955.215 53.7421C955.215 54.1471 955.485 54.4036 956.055 54.4036ZM962.302 48.1396C961.552 48.1396 960.983 47.6131 960.983 46.8976C960.983 46.1821 961.552 45.6421 962.302 45.6421C963.06 45.6421 963.645 46.1821 963.645 46.8976C963.645 47.6131 963.06 48.1396 962.302 48.1396ZM961.102 55.8751V48.8146H963.517V55.8751H961.102ZM967.83 56.0371C966.232 56.0371 965.34 55.2676 965.34 53.6071V50.4616H964.492V48.8146H965.34V47.3431H967.762V48.8146H969.15V50.4616H967.762V53.3776C967.762 53.8906 968.018 54.1201 968.475 54.1201C968.745 54.1201 968.947 54.0796 969.165 53.9986V55.8346C968.85 55.9156 968.392 56.0371 967.83 56.0371ZM970.335 55.8751V45.7096H972.735V55.8751H970.335ZM975.503 48.1396C974.745 48.1396 974.183 47.6131 974.183 46.8976C974.183 46.1821 974.745 45.6421 975.503 45.6421C976.26 45.6421 976.837 46.1821 976.837 46.8976C976.837 47.6131 976.26 48.1396 975.503 48.1396ZM974.302 55.8751V48.8146H976.718V55.8751H974.302ZM980.985 56.0371C978.975 56.0371 977.798 55.2001 977.745 53.6341H979.973C980.055 54.1471 980.28 54.4306 980.97 54.4306C981.562 54.4306 981.832 54.2011 981.832 53.8501C981.832 53.5126 981.495 53.3506 980.527 53.2156C978.637 52.9726 977.835 52.4191 977.835 50.9476C977.835 49.3816 979.23 48.6256 980.865 48.6256C982.605 48.6256 983.82 49.2196 983.977 50.9071H981.795C981.698 50.4346 981.442 50.2051 980.887 50.2051C980.362 50.2051 980.093 50.4346 980.093 50.7586C980.093 51.0961 980.415 51.2311 981.277 51.3391C983.235 51.5821 984.18 52.0951 984.18 53.6071C984.18 55.2811 982.942 56.0371 980.985 56.0371ZM987.968 56.0371C986.378 56.0371 985.485 55.2676 985.485 53.6071V50.4616H984.637V48.8146H985.485V47.3431H987.9V48.8146H989.295V50.4616H987.9V53.3776C987.9 53.8906 988.163 54.1201 988.62 54.1201C988.89 54.1201 989.092 54.0796 989.31 53.9986V55.8346C988.995 55.9156 988.538 56.0371 987.968 56.0371Z" fill="#09092A"/>
<path d="M993 30H908.25C900.173 30 893.625 36.5478 893.625 44.625V55.875C893.625 63.9522 900.173 70.5 908.25 70.5H993C1001.08 70.5 1007.62 63.9522 1007.62 55.875V44.625C1007.62 36.5478 1001.08 30 993 30Z" stroke="#09092A" stroke-width="0.75"/>
</g>
<path fill-rule="evenodd" clip-rule="evenodd" d="M1061.67 258.882C1064.51 255.498 1064.08 250.439 1060.7 247.592L973.088 173.909C969.705 171.062 964.643 171.497 961.8 174.882L920.91 223.498C918.06 226.882 918.495 231.941 921.885 234.788L1009.49 308.472C1012.88 311.318 1017.93 310.883 1020.78 307.498L1061.67 258.882Z" fill="#8AA2BB"/>
<path fill-rule="evenodd" clip-rule="evenodd" d="M943.05 232.343L932.745 223.674L926.617 230.961L936.922 239.63L943.05 232.343ZM991.807 250.105L944.175 210.038L935.475 220.376L983.115 260.444L991.807 250.105ZM1029.73 281.996L1005.28 261.429L996.577 271.768L1021.03 292.334L1029.73 281.996Z" fill="white"/>
<path d="M1052.55 269.726L952.68 185.726L940.643 200.03L1040.52 284.03L1052.55 269.726Z" fill="#09092A"/>
<path fill-rule="evenodd" clip-rule="evenodd" d="M947.483 223.758C947.993 223.069 948.675 222.406 949.388 221.852C950.498 220.997 951.683 220.419 952.403 220.33C953.033 220.255 953.453 220.484 953.663 220.838C953.97 221.344 953.903 221.941 953.49 222.526C952.898 223.366 951.503 224.216 951.068 224.431C950.063 224.926 949.133 225.145 948.24 225.185C948.03 225.585 947.903 225.979 947.993 226.345C948.075 226.733 948.413 227.041 949.005 227.302C949.32 227.441 950.108 227.551 950.948 227.574C951.285 226.997 951.833 226.532 952.365 226.297C953.19 225.937 953.963 226.119 954.323 226.711C954.57 227.113 954.585 227.466 954.503 227.76C954.39 228.145 954.053 228.498 953.483 228.703C953.1 228.841 952.575 228.925 952.02 228.962C952.065 229.216 952.245 229.468 952.553 229.721C952.943 230.034 953.76 230.227 954.675 230.423C956.303 230.776 958.208 231.064 959.108 231.483C959.895 231.846 960.12 232.399 959.985 232.902C959.888 233.294 959.835 233.602 959.85 233.845C959.858 233.962 959.873 234.053 959.918 234.117C959.993 234.201 960.105 234.229 960.225 234.262C960.383 234.302 960.555 234.326 960.743 234.347C962.033 234.494 963.683 234.567 964.658 236.182C965.063 236.849 964.778 237.501 964.14 238.062C963.953 238.222 963.743 238.378 963.57 238.533C963.54 238.558 963.51 238.588 963.48 238.619C963.548 238.671 963.63 238.72 963.72 238.771C963.96 238.909 964.253 239.038 964.545 239.161C965.243 239.458 965.97 239.744 966.383 240.046C970.718 243.24 974.805 246.794 979.215 249.9C979.53 250.125 979.605 250.567 979.38 250.885C979.155 251.205 978.72 251.28 978.398 251.056C973.98 247.944 969.893 244.384 965.543 241.183C965.123 240.872 964.29 240.606 963.6 240.289C962.97 240.004 962.445 239.664 962.19 239.306C961.74 238.672 961.995 238.021 962.67 237.443C962.82 237.309 963 237.175 963.158 237.038C963.233 236.977 963.323 236.877 963.383 236.812C963.008 236.254 962.475 236.037 961.95 235.924C961.478 235.825 961.005 235.8 960.585 235.752C959.82 235.664 959.198 235.46 958.83 235.012C958.493 234.605 958.305 233.94 958.56 232.797C958.478 232.753 958.358 232.699 958.26 232.663C957.923 232.543 957.495 232.439 957.03 232.337C955.478 232.002 953.49 231.702 952.38 231.229C952.088 231.106 951.848 230.966 951.668 230.82C950.933 230.224 950.633 229.574 950.595 228.965C949.65 228.912 948.788 228.754 948.435 228.594C947.31 228.097 946.785 227.399 946.613 226.661C946.5 226.168 946.553 225.637 946.74 225.096C946.508 225.061 946.275 225.016 946.05 224.964C944.625 224.639 943.23 224.015 941.67 223.644C941.288 223.553 941.055 223.171 941.145 222.793C941.235 222.412 941.618 222.178 942 222.268C943.253 222.568 944.408 223.03 945.555 223.372C946.193 223.561 946.823 223.711 947.483 223.758ZM952.26 221.809C951.908 221.925 951.488 222.14 951.045 222.418C950.783 222.581 950.52 222.768 950.258 222.97C950.04 223.136 949.83 223.312 949.628 223.497C949.89 223.411 950.168 223.3 950.445 223.162C950.738 223.017 951.6 222.51 952.14 221.949C952.185 221.903 952.223 221.856 952.26 221.809Z" fill="#09092A"/>
<path d="M922.77 130.777C923.415 130.26 924.3 131.008 923.895 131.728L918.217 141.874C918.067 142.14 918.097 142.472 918.292 142.709L925.575 151.772C926.085 152.415 925.342 153.299 924.622 152.897L914.475 147.219C914.205 147.07 913.875 147.098 913.642 147.289L904.575 154.572C903.937 155.089 903.052 154.34 903.45 153.621L909.127 143.475C909.277 143.208 909.255 142.877 909.06 142.64L901.777 133.577C901.26 132.934 902.01 132.05 902.73 132.452L912.87 138.13C913.14 138.279 913.47 138.251 913.71 138.06L922.77 130.777Z" fill="#09092A"/>
<path d="M997.77 375.277C998.415 374.76 999.3 375.508 998.895 376.228L993.217 386.374C993.067 386.64 993.097 386.971 993.292 387.209L1000.57 396.272C1001.08 396.915 1000.34 397.799 999.622 397.396L989.475 391.719C989.205 391.57 988.875 391.597 988.642 391.789L979.575 399.072C978.937 399.589 978.052 398.84 978.45 398.121L984.127 387.975C984.277 387.708 984.255 387.377 984.06 387.139L976.777 378.076C976.26 377.434 977.01 376.549 977.73 376.952L987.87 382.63C988.14 382.779 988.47 382.751 988.71 382.56L997.77 375.277Z" fill="#09092A"/>
<path d="M867 339.75H501.75V417.75H867V339.75Z" fill="#8181E4"/>
<path d="M212.946 305.25H199.41V269.178H182.346V257.01H229.938V269.178H212.946V305.25ZM246.743 305.25H233.207V257.01H246.743V279.978H247.463C248.615 273.858 252.647 268.242 261.935 268.242C271.583 268.242 276.191 274.362 276.191 282.426V305.25H262.655V286.962C262.655 281.922 260.711 280.338 254.519 280.338C248.255 280.338 246.743 281.85 246.743 286.53V305.25ZM300.478 305.97C288.166 305.97 279.526 300.714 279.526 287.106C279.526 275.298 288.094 268.242 300.19 268.242C312.718 268.242 320.71 274.506 320.71 286.17C320.71 287.394 320.638 288.33 320.494 289.626H292.054C292.27 294.018 294.214 295.242 299.974 295.242C305.446 295.242 306.886 294.306 306.886 292.146V291.354H320.422V292.218C320.422 300.282 312.718 305.97 300.478 305.97ZM299.902 278.61C294.934 278.61 292.846 279.69 292.27 282.786H307.606C307.102 279.69 304.942 278.61 299.902 278.61ZM347.059 305.25H334.387V257.01H347.923V278.322H348.643C349.723 272.274 353.755 268.242 362.323 268.242C372.979 268.242 378.955 275.298 378.955 287.106C378.955 298.842 372.835 305.97 361.747 305.97C353.251 305.97 348.931 302.658 347.779 295.458H347.059V305.25ZM347.923 287.178C347.923 292.434 350.803 293.586 356.851 293.586C363.115 293.586 365.275 291.93 365.275 287.106C365.275 282.282 363.115 280.554 356.851 280.554C350.803 280.554 347.923 281.562 347.923 286.674V287.178ZM394.287 305.97C386.079 305.97 381.471 302.226 381.471 296.034C381.471 290.922 384.999 287.25 393.207 286.458L407.967 285.018V284.298C407.967 280.626 406.383 280.05 401.558 280.05C397.095 280.05 395.727 280.914 395.727 283.938V284.226H382.191V284.082C382.191 274.434 390.255 268.242 402.567 268.242C415.239 268.242 421.359 274.434 421.359 284.586V305.25H408.687V297.618H407.967C406.599 302.73 402.135 305.97 394.287 305.97ZM395.079 295.17C395.079 296.322 396.231 296.538 398.319 296.538C404.871 296.538 407.535 295.746 407.895 292.506L396.807 293.802C395.583 293.946 395.079 294.378 395.079 295.17ZM438.907 305.25H425.371V268.962H438.043V279.978H438.763C439.555 273.93 443.515 268.242 453.235 268.242C463.027 268.242 467.635 274.146 467.635 281.994V305.25H454.099V286.962C454.099 281.922 452.227 280.338 446.323 280.338C440.347 280.338 438.907 281.85 438.907 286.53V305.25ZM485.173 305.25H471.637V257.01H485.173V281.562H491.581L499.573 268.962H515.557L502.669 286.602L515.341 305.25H499.357L491.725 293.658H485.173V305.25ZM530.525 265.65H516.989V257.01H530.525V265.65ZM530.525 305.25H516.989V268.962H530.525V305.25ZM548.384 305.25H534.848V268.962H547.52V279.978H548.24C549.032 273.93 552.992 268.242 562.712 268.242C572.504 268.242 577.112 274.146 577.112 281.994V305.25H563.576V286.962C563.576 281.922 561.704 280.338 555.8 280.338C549.824 280.338 548.384 281.85 548.384 286.53V305.25ZM597.242 301.218C586.442 301.218 580.394 295.026 580.394 284.658C580.394 274.434 586.874 268.242 597.602 268.242C604.946 268.242 609.842 271.194 610.85 277.458H611.57V268.962H624.242V299.13C624.242 312.09 616.538 318.21 602.57 318.21C589.898 318.21 582.554 312.882 582.554 303.378H596.09C596.09 306.33 596.45 307.05 603.506 307.05C609.338 307.05 610.706 306.186 610.706 300.066V292.434H609.986C609.05 297.69 605.234 301.218 597.242 301.218ZM594.074 284.658C594.074 288.258 595.802 289.626 602.138 289.626C608.186 289.626 610.706 288.906 610.706 285.09V284.586C610.706 280.698 608.186 279.906 602.138 279.906C595.802 279.906 594.074 281.13 594.074 284.658ZM650.365 305.97C642.157 305.97 637.549 302.226 637.549 296.034C637.549 290.922 641.077 287.25 649.285 286.458L664.045 285.018V284.298C664.045 280.626 662.461 280.05 657.637 280.05C653.173 280.05 651.805 280.914 651.805 283.938V284.226H638.269V284.082C638.269 274.434 646.333 268.242 658.645 268.242C671.317 268.242 677.437 274.434 677.437 284.586V305.25H664.765V297.618H664.045C662.677 302.73 658.213 305.97 650.365 305.97ZM651.157 295.17C651.157 296.322 652.309 296.538 654.397 296.538C660.949 296.538 663.613 295.746 663.973 292.506L652.885 293.802C651.661 293.946 651.157 294.378 651.157 295.17ZM694.985 317.49H681.449V268.962H694.121V278.754H694.841C695.993 271.554 700.313 268.242 708.809 268.242C719.897 268.242 726.017 275.37 726.017 287.106C726.017 298.914 720.041 305.97 709.385 305.97C700.817 305.97 696.785 301.938 695.705 295.89H694.985V317.49ZM694.985 287.538C694.985 292.65 697.865 293.658 703.913 293.658C710.177 293.658 712.337 291.93 712.337 287.106C712.337 282.282 710.177 280.626 703.913 280.626C697.865 280.626 694.985 281.778 694.985 287.034V287.538ZM743.15 317.49H729.614V268.962H742.286V278.754H743.006C744.158 271.554 748.478 268.242 756.975 268.242C768.06 268.242 774.18 275.37 774.18 287.106C774.18 298.914 768.203 305.97 757.553 305.97C748.982 305.97 744.95 301.938 743.87 295.89H743.15V317.49ZM743.15 287.538C743.15 292.65 746.03 293.658 752.078 293.658C758.34 293.658 760.5 291.93 760.5 287.106C760.5 282.282 758.34 280.626 752.078 280.626C746.03 280.626 743.15 281.778 743.15 287.034V287.538ZM804.465 305.25H790.928V280.05H786.03V268.962H791.213C792.653 262.122 799.35 257.01 811.23 257.01H814.11V266.658H809.07C805.328 266.658 803.528 267.018 803.603 268.962H814.11V280.05H804.465V305.25ZM837.098 305.97C824.498 305.97 815.933 298.842 815.933 287.106C815.933 275.298 824.498 268.242 837.098 268.242C849.698 268.242 858.27 275.298 858.27 287.106C858.27 298.842 849.698 305.97 837.098 305.97ZM837.098 294.018C843.218 294.018 844.875 292.362 844.875 287.106C844.875 281.85 843.218 280.122 837.098 280.122C830.978 280.122 829.32 281.85 829.32 287.106C829.32 292.362 830.978 294.018 837.098 294.018ZM875.055 305.25H861.518V268.962H874.193V278.466H874.913C875.918 272.49 879.66 268.242 886.86 268.242C894.855 268.242 898.02 273.498 898.02 280.77V287.97H884.49V283.722C884.49 280.698 883.335 279.618 879.81 279.618C876.135 279.618 875.055 280.698 875.055 283.578V305.25ZM227.765 399H212.573L233.381 350.76H252.749L273.629 399H258.077L254.405 390.072H231.509L227.765 399ZM239.429 371.136L236.621 377.904H249.437L246.629 371.136L243.461 363H242.525L239.429 371.136ZM291.71 399H278.174V373.8H273.278V362.712H278.462C279.902 355.872 286.598 350.76 298.478 350.76H301.358V360.408H296.318C292.574 360.408 290.774 360.768 290.846 362.712H301.358V373.8H291.71V399ZM317.794 399H304.258V362.712H316.93V372.216H317.65C318.658 366.24 322.402 361.992 329.602 361.992C337.594 361.992 340.762 367.248 340.762 374.52V381.72H327.226V377.472C327.226 374.448 326.074 373.368 322.546 373.368C318.874 373.368 317.794 374.448 317.794 377.328V399ZM357.169 359.4H343.633V350.76H357.169V359.4ZM357.169 399H343.633V362.712H357.169V399ZM381.868 399.72C368.98 399.72 360.772 392.592 360.772 380.856C360.772 369.048 368.98 361.992 381.868 361.992C394.252 361.992 402.172 368.328 402.172 378.048V379.2H388.708V378.624C388.708 374.88 385.972 374.088 381.58 374.088C376.612 374.088 374.236 375.168 374.236 380.856C374.236 386.472 376.612 387.552 381.58 387.552C385.972 387.552 388.708 386.832 388.708 383.088V382.44H402.172V383.664C402.172 393.312 394.252 399.72 381.868 399.72ZM417.525 399.72C409.317 399.72 404.709 395.976 404.709 389.784C404.709 384.672 408.237 381 416.445 380.208L431.205 378.768V378.048C431.205 374.376 429.621 373.8 424.797 373.8C420.333 373.8 418.965 374.664 418.965 377.688V377.976H405.429V377.832C405.429 368.184 413.493 361.992 425.805 361.992C438.477 361.992 444.597 368.184 444.597 378.336V399H431.925V391.368H431.205C429.837 396.48 425.373 399.72 417.525 399.72ZM418.317 388.92C418.317 390.072 419.469 390.288 421.557 390.288C428.109 390.288 430.773 389.496 431.133 386.256L420.045 387.552C418.821 387.696 418.317 388.128 418.317 388.92ZM462.146 399H448.61V362.712H461.282V373.728H462.002C462.794 367.68 466.754 361.992 476.474 361.992C486.266 361.992 490.874 367.896 490.874 375.744V399H477.338V380.712C477.338 375.672 475.466 374.088 469.562 374.088C463.586 374.088 462.146 375.6 462.146 380.28V399ZM530.849 399.72C514.073 399.72 504.209 389.928 504.209 374.88C504.209 359.832 514.073 350.04 530.849 350.04C547.049 350.04 556.769 357.744 556.769 370.632V371.856H541.649V370.632C541.649 365.16 539.057 363 531.065 363C521.273 363 518.609 365.304 518.609 374.88C518.609 384.456 521.273 386.76 531.065 386.76C539.057 386.76 541.649 384.6 541.649 379.128V377.904H556.769V379.128C556.769 392.016 547.049 399.72 530.849 399.72ZM573.872 399H560.336V362.712H573.008V372.216H573.728C574.736 366.24 578.48 361.992 585.68 361.992C593.672 361.992 596.84 367.248 596.84 374.52V381.72H583.304V377.472C583.304 374.448 582.152 373.368 578.624 373.368C574.952 373.368 573.872 374.448 573.872 377.328V399ZM619.943 399.72C607.631 399.72 598.991 394.464 598.991 380.856C598.991 369.048 607.559 361.992 619.655 361.992C632.183 361.992 640.175 368.256 640.175 379.92C640.175 381.144 640.103 382.08 639.959 383.376H611.519C611.735 387.768 613.679 388.992 619.439 388.992C624.911 388.992 626.351 388.056 626.351 385.896V385.104H639.887V385.968C639.887 394.032 632.183 399.72 619.943 399.72ZM619.367 372.36C614.399 372.36 612.311 373.44 611.735 376.536H627.071C626.567 373.44 624.407 372.36 619.367 372.36ZM655.533 399.72C647.325 399.72 642.717 395.976 642.717 389.784C642.717 384.672 646.245 381 654.453 380.208L669.213 378.768V378.048C669.213 374.376 667.629 373.8 662.805 373.8C658.341 373.8 656.973 374.664 656.973 377.688V377.976H643.437V377.832C643.437 368.184 651.501 361.992 663.813 361.992C676.485 361.992 682.605 368.184 682.605 378.336V399H669.933V391.368H669.213C667.845 396.48 663.381 399.72 655.533 399.72ZM656.325 388.92C656.325 390.072 657.477 390.288 659.565 390.288C666.117 390.288 668.781 389.496 669.141 386.256L658.053 387.552C656.829 387.696 656.325 388.128 656.325 388.92ZM713.761 399H704.257C695.185 399 689.785 394.608 689.785 385.176V373.8H684.457V362.712H689.785V356.448H703.321V362.712H713.761V373.8H703.321V383.232C703.321 386.112 704.185 386.832 707.281 386.832H713.761V399ZM730.528 359.4H716.992V350.76H730.528V359.4ZM730.528 399H716.992V362.712H730.528V399ZM765.165 399H748.46L732.332 362.712H747.452L756.525 385.824H757.463L766.605 362.712H781.433L765.165 399ZM803.46 399.72C791.145 399.72 782.505 394.464 782.505 380.856C782.505 369.048 791.078 361.992 803.168 361.992C815.7 361.992 823.688 368.256 823.688 379.92C823.688 381.144 823.62 382.08 823.478 383.376H795.038C795.248 387.768 797.198 388.992 802.958 388.992C808.425 388.992 809.865 388.056 809.865 385.896V385.104H823.403V385.968C823.403 394.032 815.7 399.72 803.46 399.72ZM802.883 372.36C797.918 372.36 795.825 373.44 795.248 376.536H810.585C810.083 373.44 807.923 372.36 802.883 372.36ZM846.825 399.72C834.008 399.72 827.168 394.752 827.168 386.4V386.112H840.705V386.832C840.705 388.848 842.003 389.064 846.9 389.064C851.58 389.064 852.3 388.56 852.3 387.336C852.3 386.184 851.723 385.896 848.34 385.536L837.825 384.384C830.34 383.592 826.305 380.064 826.305 373.944C826.305 367.536 831.42 361.992 845.025 361.992C857.625 361.992 864.323 366.528 864.323 375.456V375.744H850.785V375.312C850.785 373.44 850.065 372.576 844.59 372.576C840.203 372.576 839.625 373.152 839.625 374.52C839.625 375.528 840.203 376.032 844.448 376.464L851.648 377.256C862.23 378.408 865.62 381.936 865.62 388.056C865.62 394.824 858.848 399.72 846.825 399.72Z" fill="#09092A"/>
<path d="M185.618 461.25V451.597H188.858C190.978 451.597 192.463 452.461 192.463 454.432V454.486C192.463 455.998 191.518 456.768 190.316 457.078L193.03 461.25H191.086L188.561 457.348H187.414V461.25H185.618ZM187.414 456.066H188.858C190.06 456.066 190.694 455.553 190.694 454.527V454.473C190.694 453.366 190.006 452.988 188.858 452.988H187.414V456.066ZM197.184 461.385C195.105 461.385 193.606 460.021 193.606 457.794V457.686C193.606 455.499 195.105 454.041 197.116 454.041C198.871 454.041 200.451 455.08 200.451 457.605V458.077H195.28C195.334 459.414 196.009 460.17 197.224 460.17C198.21 460.17 198.723 459.778 198.844 459.09H200.424C200.194 460.575 198.993 461.385 197.184 461.385ZM195.307 456.984H198.831C198.75 455.769 198.129 455.229 197.116 455.229C196.131 455.229 195.469 455.89 195.307 456.984ZM205.001 461.385C202.976 461.385 201.437 460.062 201.437 457.807V457.699C201.437 455.458 203.03 454.041 205.001 454.041C206.567 454.041 208.039 454.743 208.228 456.687H206.648C206.513 455.742 205.892 455.35 205.028 455.35C203.908 455.35 203.111 456.214 203.111 457.672V457.78C203.111 459.319 203.867 460.129 205.069 460.129C205.933 460.129 206.675 459.616 206.77 458.617H208.268C208.147 460.237 206.918 461.385 205.001 461.385ZM212.78 461.385C210.701 461.385 209.203 460.021 209.203 457.794V457.686C209.203 455.499 210.701 454.041 212.713 454.041C214.468 454.041 216.047 455.08 216.047 457.605V458.077H210.877C210.931 459.414 211.606 460.17 212.821 460.17C213.806 460.17 214.319 459.778 214.441 459.09H216.02C215.791 460.575 214.589 461.385 212.78 461.385ZM210.904 456.984H214.427C214.346 455.769 213.725 455.229 212.713 455.229C211.727 455.229 211.066 455.89 210.904 456.984ZM218.343 453.028C217.803 453.028 217.371 452.623 217.371 452.097C217.371 451.557 217.803 451.152 218.343 451.152C218.883 451.152 219.315 451.557 219.315 452.097C219.315 452.623 218.883 453.028 218.343 453.028ZM217.546 461.25V454.189H219.18V461.25H217.546ZM223.021 461.25L220.442 454.189H222.197L224.047 459.576L225.869 454.189H227.476L224.924 461.25H223.021ZM231.527 461.385C229.448 461.385 227.95 460.021 227.95 457.794V457.686C227.95 455.499 229.448 454.041 231.46 454.041C233.215 454.041 234.794 455.08 234.794 457.605V458.077H229.624C229.678 459.414 230.353 460.17 231.568 460.17C232.553 460.17 233.066 459.778 233.188 459.09H234.767C234.538 460.575 233.336 461.385 231.527 461.385ZM229.651 456.984H233.174C233.093 455.769 232.472 455.229 231.46 455.229C230.474 455.229 229.813 455.89 229.651 456.984ZM239.47 463.666V454.189H241.103V455.323C241.495 454.648 242.372 454.041 243.412 454.041C245.18 454.041 246.544 455.35 246.544 457.632V457.74C246.544 460.008 245.234 461.385 243.412 461.385C242.291 461.385 241.481 460.831 241.103 460.143V463.666H239.47ZM243.007 460.089C244.208 460.089 244.87 459.279 244.87 457.767V457.659C244.87 456.093 244.06 455.323 242.993 455.323C241.859 455.323 241.049 456.093 241.049 457.659V457.767C241.049 459.346 241.819 460.089 243.007 460.089ZM249.862 461.385C248.566 461.385 247.5 460.764 247.5 459.292C247.5 457.645 249.093 457.051 251.118 457.051H251.995V456.687C251.995 455.742 251.671 455.269 250.713 455.269C249.862 455.269 249.444 455.674 249.363 456.376H247.783C247.918 454.729 249.228 454.041 250.807 454.041C252.387 454.041 253.629 454.689 253.629 456.619V461.25H252.022V460.386C251.563 460.993 250.942 461.385 249.862 461.385ZM250.254 460.21C251.253 460.21 251.995 459.684 251.995 458.779V458.077H251.158C249.916 458.077 249.12 458.361 249.12 459.225C249.12 459.819 249.444 460.21 250.254 460.21ZM256.073 463.666L257.356 460.534L254.561 454.189H256.33L258.206 458.739L259.934 454.189H261.527L257.68 463.666H256.073ZM262.752 461.25V454.189H264.385V455.269C264.723 454.608 265.492 454.041 266.532 454.041C267.45 454.041 268.179 454.432 268.53 455.31C269.07 454.432 270.042 454.041 270.919 454.041C272.215 454.041 273.268 454.837 273.268 456.781V461.25H271.635V456.889C271.635 455.85 271.189 455.404 270.379 455.404C269.569 455.404 268.827 455.944 268.827 457.024V461.25H267.193V456.889C267.193 455.85 266.734 455.404 265.938 455.404C265.128 455.404 264.385 455.944 264.385 457.024V461.25H262.752ZM278.249 461.385C276.17 461.385 274.672 460.021 274.672 457.794V457.686C274.672 455.499 276.17 454.041 278.182 454.041C279.937 454.041 281.516 455.08 281.516 457.605V458.077H276.346C276.4 459.414 277.075 460.17 278.29 460.17C279.275 460.17 279.788 459.778 279.91 459.09H281.489C281.26 460.575 280.058 461.385 278.249 461.385ZM276.373 456.984H279.896C279.815 455.769 279.194 455.229 278.182 455.229C277.196 455.229 276.535 455.89 276.373 456.984ZM282.976 461.25V454.189H284.609V455.31C284.947 454.621 285.73 454.041 286.891 454.041C288.308 454.041 289.307 454.864 289.307 456.808V461.25H287.674V456.957C287.674 455.89 287.242 455.404 286.27 455.404C285.352 455.404 284.609 455.971 284.609 457.092V461.25H282.976ZM293.592 461.371C292.188 461.371 291.459 460.615 291.459 459.279V455.418H290.514V454.189H291.459V452.637H293.092V454.189H294.645V455.418H293.092V459.13C293.092 459.751 293.389 460.035 293.902 460.035C294.226 460.035 294.469 459.994 294.699 459.9V461.196C294.442 461.29 294.091 461.371 293.592 461.371ZM300.226 453.028C299.686 453.028 299.254 452.623 299.254 452.097C299.254 451.557 299.686 451.152 300.226 451.152C300.766 451.152 301.198 451.557 301.198 452.097C301.198 452.623 300.766 453.028 300.226 453.028ZM299.43 461.25V454.189H301.063V461.25H299.43ZM303.054 461.25V454.189H304.687V455.31C305.025 454.621 305.808 454.041 306.969 454.041C308.386 454.041 309.385 454.864 309.385 456.808V461.25H307.752V456.957C307.752 455.89 307.32 455.404 306.348 455.404C305.43 455.404 304.687 455.971 304.687 457.092V461.25H303.054ZM314.62 461.25V451.597H316.766L320.83 458.577V451.597H322.463V461.25H320.6L316.253 453.852V461.25H314.62ZM326.353 461.385C325.057 461.385 323.991 460.764 323.991 459.292C323.991 457.645 325.584 457.051 327.609 457.051H328.486V456.687C328.486 455.742 328.162 455.269 327.204 455.269C326.353 455.269 325.935 455.674 325.854 456.376H324.274C324.409 454.729 325.719 454.041 327.298 454.041C328.878 454.041 330.12 454.689 330.12 456.619V461.25H328.513V460.386C328.054 460.993 327.433 461.385 326.353 461.385ZM326.745 460.21C327.744 460.21 328.486 459.684 328.486 458.779V458.077H327.649C326.407 458.077 325.611 458.361 325.611 459.225C325.611 459.819 325.935 460.21 326.745 460.21ZM332.829 453.028C332.289 453.028 331.857 452.623 331.857 452.097C331.857 451.557 332.289 451.152 332.829 451.152C333.369 451.152 333.801 451.557 333.801 452.097C333.801 452.623 333.369 453.028 332.829 453.028ZM332.032 461.25V454.189H333.666V461.25H332.032ZM335.657 461.25V454.189H337.291V455.512C337.736 454.621 338.398 454.095 339.586 454.081V455.607C338.155 455.62 337.291 456.079 337.291 457.578V461.25H335.657ZM342.767 461.385C341.471 461.385 340.405 460.764 340.405 459.292C340.405 457.645 341.998 457.051 344.023 457.051H344.9V456.687C344.9 455.742 344.576 455.269 343.618 455.269C342.767 455.269 342.349 455.674 342.268 456.376H340.688C340.823 454.729 342.133 454.041 343.712 454.041C345.292 454.041 346.534 454.689 346.534 456.619V461.25H344.927V460.386C344.468 460.993 343.847 461.385 342.767 461.385ZM343.159 460.21C344.158 460.21 344.9 459.684 344.9 458.779V458.077H344.063C342.821 458.077 342.025 458.361 342.025 459.225C342.025 459.819 342.349 460.21 343.159 460.21ZM353.472 461.385C352.176 461.385 351.109 460.764 351.109 459.292C351.109 457.645 352.702 457.051 354.727 457.051H355.605V456.687C355.605 455.742 355.281 455.269 354.322 455.269C353.472 455.269 353.053 455.674 352.972 456.376H351.393C351.528 454.729 352.837 454.041 354.417 454.041C355.996 454.041 357.238 454.689 357.238 456.619V461.25H355.632V460.386C355.173 460.993 354.552 461.385 353.472 461.385ZM353.863 460.21C354.862 460.21 355.605 459.684 355.605 458.779V458.077H354.768C353.526 458.077 352.729 458.361 352.729 459.225C352.729 459.819 353.053 460.21 353.863 460.21ZM359.111 461.25V454.189H360.745V455.31C361.082 454.621 361.865 454.041 363.026 454.041C364.444 454.041 365.443 454.864 365.443 456.808V461.25H363.809V456.957C363.809 455.89 363.377 455.404 362.405 455.404C361.487 455.404 360.745 455.971 360.745 457.092V461.25H359.111ZM369.97 461.385C368.202 461.385 366.865 460.129 366.865 457.834V457.726C366.865 455.472 368.202 454.041 370.038 454.041C371.185 454.041 371.901 454.567 372.292 455.269V450.922H373.926V461.25H372.292V460.062C371.914 460.764 371.01 461.385 369.97 461.385ZM370.375 460.089C371.509 460.089 372.346 459.333 372.346 457.753V457.645C372.346 456.093 371.631 455.323 370.443 455.323C369.241 455.323 368.539 456.16 368.539 457.686V457.794C368.539 459.346 369.322 460.089 370.375 460.089ZM379.219 461.25V451.597H382.148C385.51 451.597 387.143 453.514 387.143 456.322V456.444C387.143 459.252 385.51 461.25 382.121 461.25H379.219ZM381.014 459.832H382.067C384.227 459.832 385.267 458.59 385.267 456.457V456.349C385.267 454.27 384.322 453.015 382.054 453.015H381.014V459.832ZM391.867 461.385C389.788 461.385 388.249 459.94 388.249 457.794V457.686C388.249 455.499 389.801 454.041 391.88 454.041C393.946 454.041 395.498 455.485 395.498 457.645V457.753C395.498 459.954 393.946 461.385 391.867 461.385ZM391.88 460.116C393.095 460.116 393.824 459.211 393.824 457.767V457.672C393.824 456.214 393.095 455.323 391.88 455.323C390.665 455.323 389.923 456.201 389.923 457.659V457.767C389.923 459.211 390.638 460.116 391.88 460.116ZM397.015 461.25V450.922H398.648V461.25H397.015ZM400.68 461.25V450.922H402.313V461.25H400.68ZM406.153 461.385C404.857 461.385 403.791 460.764 403.791 459.292C403.791 457.645 405.384 457.051 407.409 457.051H408.286V456.687C408.286 455.742 407.962 455.269 407.004 455.269C406.153 455.269 405.735 455.674 405.654 456.376H404.074C404.209 454.729 405.519 454.041 407.098 454.041C408.678 454.041 409.92 454.689 409.92 456.619V461.25H408.313V460.386C407.854 460.993 407.233 461.385 406.153 461.385ZM406.545 460.21C407.544 460.21 408.286 459.684 408.286 458.779V458.077H407.449C406.207 458.077 405.411 458.361 405.411 459.225C405.411 459.819 405.735 460.21 406.545 460.21ZM411.793 461.25V454.189H413.426V455.512C413.872 454.621 414.533 454.095 415.721 454.081V455.607C414.29 455.62 413.426 456.079 413.426 457.578V461.25H411.793ZM419.548 461.385C417.726 461.385 416.659 460.548 416.592 459.049H418.131C418.212 459.765 418.576 460.183 419.535 460.183C420.412 460.183 420.804 459.873 420.804 459.279C420.804 458.698 420.331 458.482 419.292 458.307C417.429 458.01 416.74 457.483 416.74 456.16C416.74 454.743 418.063 454.041 419.386 454.041C420.831 454.041 421.978 454.581 422.154 456.174H420.642C420.507 455.526 420.142 455.229 419.386 455.229C418.684 455.229 418.266 455.566 418.266 456.066C418.266 456.579 418.603 456.781 419.724 456.97C421.384 457.227 422.37 457.632 422.37 459.13C422.37 460.561 421.357 461.385 419.548 461.385ZM424.221 462.91L423.208 462.465L424.437 459.265L425.989 459.886L424.221 462.91ZM434.377 461.385C431.744 461.385 430.637 460.075 430.502 458.253H432.23C432.352 459.225 432.743 460.035 434.377 460.035C435.443 460.035 436.199 459.441 436.199 458.55C436.199 457.659 435.754 457.321 434.188 457.065C431.879 456.754 430.786 456.052 430.786 454.243C430.786 452.664 432.136 451.476 434.147 451.476C436.226 451.476 437.468 452.421 437.657 454.27H436.01C435.835 453.258 435.254 452.826 434.147 452.826C433.054 452.826 432.487 453.352 432.487 454.095C432.487 454.878 432.811 455.269 434.485 455.512C436.753 455.823 437.927 456.471 437.927 458.401C437.927 460.075 436.51 461.385 434.377 461.385ZM441.38 461.385C440.084 461.385 439.018 460.764 439.018 459.292C439.018 457.645 440.611 457.051 442.636 457.051H443.513V456.687C443.513 455.742 443.189 455.269 442.231 455.269C441.38 455.269 440.962 455.674 440.881 456.376H439.301C439.436 454.729 440.746 454.041 442.325 454.041C443.905 454.041 445.147 454.689 445.147 456.619V461.25H443.54V460.386C443.081 460.993 442.46 461.385 441.38 461.385ZM441.772 460.21C442.771 460.21 443.513 459.684 443.513 458.779V458.077H442.676C441.434 458.077 440.638 458.361 440.638 459.225C440.638 459.819 440.962 460.21 441.772 460.21ZM448.671 461.25L446.092 454.189H447.847L449.697 459.576L451.519 454.189H453.126L450.574 461.25H448.671ZM457.177 461.385C455.098 461.385 453.6 460.021 453.6 457.794V457.686C453.6 455.499 455.098 454.041 457.11 454.041C458.865 454.041 460.444 455.08 460.444 457.605V458.077H455.274C455.328 459.414 456.003 460.17 457.218 460.17C458.203 460.17 458.716 459.778 458.838 459.09H460.417C460.188 460.575 458.986 461.385 457.177 461.385ZM455.301 456.984H458.824C458.743 455.769 458.122 455.229 457.11 455.229C456.124 455.229 455.463 455.89 455.301 456.984ZM465.403 461.25V455.418H464.445V454.189H465.403V453.244C465.403 451.692 466.267 450.855 467.779 450.855C468.171 450.855 468.414 450.895 468.711 450.99V452.259C468.522 452.191 468.265 452.137 467.968 452.137C467.307 452.137 467.037 452.569 467.037 453.177V454.189H468.643V455.418H467.037V461.25H465.403ZM472.853 461.385C470.774 461.385 469.235 459.94 469.235 457.794V457.686C469.235 455.499 470.788 454.041 472.867 454.041C474.932 454.041 476.485 455.485 476.485 457.645V457.753C476.485 459.954 474.932 461.385 472.853 461.385ZM472.867 460.116C474.082 460.116 474.811 459.211 474.811 457.767V457.672C474.811 456.214 474.082 455.323 472.867 455.323C471.652 455.323 470.909 456.201 470.909 457.659V457.767C470.909 459.211 471.625 460.116 472.867 460.116ZM477.961 461.25V454.189H479.594V455.512C480.04 454.621 480.701 454.095 481.889 454.081V455.607C480.458 455.62 479.594 456.079 479.594 457.578V461.25H477.961ZM488.947 461.371C487.543 461.371 486.814 460.615 486.814 459.279V455.418H485.869V454.189H486.814V452.637H488.447V454.189H490V455.418H488.447V459.13C488.447 459.751 488.744 460.035 489.257 460.035C489.581 460.035 489.824 459.994 490.054 459.9V461.196C489.797 461.29 489.446 461.371 488.947 461.371ZM491.527 461.25V450.922H493.16V455.31C493.498 454.621 494.281 454.041 495.442 454.041C496.859 454.041 497.858 454.864 497.858 456.808V461.25H496.225V456.957C496.225 455.89 495.793 455.404 494.821 455.404C493.903 455.404 493.16 455.971 493.16 457.092V461.25H491.527ZM500.577 453.028C500.037 453.028 499.605 452.623 499.605 452.097C499.605 451.557 500.037 451.152 500.577 451.152C501.117 451.152 501.549 451.557 501.549 452.097C501.549 452.623 501.117 453.028 500.577 453.028ZM499.78 461.25V454.189H501.414V461.25H499.78ZM503.405 461.25V454.189H505.039V455.31C505.376 454.621 506.159 454.041 507.32 454.041C508.738 454.041 509.737 454.864 509.737 456.808V461.25H508.103V456.957C508.103 455.89 507.671 455.404 506.699 455.404C505.781 455.404 505.039 455.971 505.039 457.092V461.25H503.405ZM514.629 463.842C512.415 463.842 511.416 462.843 511.227 461.493H512.874C513.009 462.195 513.549 462.6 514.615 462.6C515.884 462.6 516.586 461.965 516.586 460.696V459.657C516.195 460.332 515.317 460.966 514.278 460.966C512.509 460.966 511.146 459.643 511.146 457.605V457.51C511.146 455.526 512.496 454.041 514.318 454.041C515.479 454.041 516.181 454.567 516.586 455.269V454.189H518.22V460.723C518.206 462.802 516.816 463.842 514.629 463.842ZM514.683 459.711C515.817 459.711 516.64 458.901 516.64 457.551V457.456C516.64 456.12 515.911 455.323 514.737 455.323C513.522 455.323 512.82 456.201 512.82 457.483V457.591C512.82 458.901 513.63 459.711 514.683 459.711ZM522.578 461.385C520.756 461.385 519.689 460.548 519.622 459.049H521.161C521.242 459.765 521.606 460.183 522.565 460.183C523.442 460.183 523.834 459.873 523.834 459.279C523.834 458.698 523.361 458.482 522.322 458.307C520.459 458.01 519.77 457.483 519.77 456.16C519.77 454.743 521.093 454.041 522.416 454.041C523.861 454.041 525.008 454.581 525.184 456.174H523.672C523.537 455.526 523.172 455.229 522.416 455.229C521.714 455.229 521.296 455.566 521.296 456.066C521.296 456.579 521.633 456.781 522.754 456.97C524.414 457.227 525.4 457.632 525.4 459.13C525.4 460.561 524.387 461.385 522.578 461.385ZM532.453 461.371C531.049 461.371 530.32 460.615 530.32 459.279V455.418H529.375V454.189H530.32V452.637H531.953V454.189H533.506V455.418H531.953V459.13C531.953 459.751 532.25 460.035 532.763 460.035C533.087 460.035 533.33 459.994 533.56 459.9V461.196C533.303 461.29 532.952 461.371 532.453 461.371ZM535.033 461.25V450.922H536.666V455.31C537.004 454.621 537.787 454.041 538.948 454.041C540.365 454.041 541.364 454.864 541.364 456.808V461.25H539.731V456.957C539.731 455.89 539.299 455.404 538.327 455.404C537.409 455.404 536.666 455.971 536.666 457.092V461.25H535.033ZM545.095 461.385C543.799 461.385 542.733 460.764 542.733 459.292C542.733 457.645 544.326 457.051 546.351 457.051H547.228V456.687C547.228 455.742 546.904 455.269 545.946 455.269C545.095 455.269 544.677 455.674 544.596 456.376H543.016C543.151 454.729 544.461 454.041 546.04 454.041C547.62 454.041 548.862 454.689 548.862 456.619V461.25H547.255V460.386C546.796 460.993 546.175 461.385 545.095 461.385ZM545.487 460.21C546.486 460.21 547.228 459.684 547.228 458.779V458.077H546.391C545.149 458.077 544.353 458.361 544.353 459.225C544.353 459.819 544.677 460.21 545.487 460.21ZM553.124 461.371C551.72 461.371 550.991 460.615 550.991 459.279V455.418H550.046V454.189H550.991V452.637H552.625V454.189H554.177V455.418H552.625V459.13C552.625 459.751 552.922 460.035 553.435 460.035C553.759 460.035 554.002 459.994 554.231 459.9V461.196C553.975 461.29 553.624 461.371 553.124 461.371ZM558.922 461.25V454.189H560.555V455.269C560.893 454.608 561.662 454.041 562.702 454.041C563.62 454.041 564.349 454.432 564.7 455.31C565.24 454.432 566.212 454.041 567.089 454.041C568.385 454.041 569.438 454.837 569.438 456.781V461.25H567.805V456.889C567.805 455.85 567.359 455.404 566.549 455.404C565.739 455.404 564.997 455.944 564.997 457.024V461.25H563.363V456.889C563.363 455.85 562.904 455.404 562.108 455.404C561.298 455.404 560.555 455.944 560.555 457.024V461.25H558.922ZM573.163 461.385C571.867 461.385 570.801 460.764 570.801 459.292C570.801 457.645 572.394 457.051 574.419 457.051H575.296V456.687C575.296 455.742 574.972 455.269 574.014 455.269C573.163 455.269 572.745 455.674 572.664 456.376H571.084C571.219 454.729 572.529 454.041 574.108 454.041C575.688 454.041 576.93 454.689 576.93 456.619V461.25H575.323V460.386C574.864 460.993 574.243 461.385 573.163 461.385ZM573.555 460.21C574.554 460.21 575.296 459.684 575.296 458.779V458.077H574.459C573.217 458.077 572.421 458.361 572.421 459.225C572.421 459.819 572.745 460.21 573.555 460.21ZM581.192 461.371C579.788 461.371 579.059 460.615 579.059 459.279V455.418H578.114V454.189H579.059V452.637H580.693V454.189H582.245V455.418H580.693V459.13C580.693 459.751 580.99 460.035 581.503 460.035C581.827 460.035 582.07 459.994 582.299 459.9V461.196C582.043 461.29 581.692 461.371 581.192 461.371ZM586.175 461.371C584.771 461.371 584.042 460.615 584.042 459.279V455.418H583.097V454.189H584.042V452.637H585.676V454.189H587.228V455.418H585.676V459.13C585.676 459.751 585.973 460.035 586.486 460.035C586.81 460.035 587.053 459.994 587.282 459.9V461.196C587.026 461.29 586.675 461.371 586.175 461.371ZM591.861 461.385C589.782 461.385 588.283 460.021 588.283 457.794V457.686C588.283 455.499 589.782 454.041 591.793 454.041C593.548 454.041 595.128 455.08 595.128 457.605V458.077H589.957C590.011 459.414 590.686 460.17 591.901 460.17C592.887 460.17 593.4 459.778 593.521 459.09H595.101C594.871 460.575 593.67 461.385 591.861 461.385ZM589.984 456.984H593.508C593.427 455.769 592.806 455.229 591.793 455.229C590.808 455.229 590.146 455.89 589.984 456.984ZM596.587 461.25V454.189H598.22V455.512C598.666 454.621 599.327 454.095 600.515 454.081V455.607C599.084 455.62 598.22 456.079 598.22 457.578V461.25H596.587ZM601.567 462.91L600.554 462.465L601.783 459.265L603.335 459.886L601.567 462.91ZM610.723 461.385C608.901 461.385 607.834 460.548 607.767 459.049H609.306C609.387 459.765 609.751 460.183 610.71 460.183C611.587 460.183 611.979 459.873 611.979 459.279C611.979 458.698 611.506 458.482 610.467 458.307C608.604 458.01 607.915 457.483 607.915 456.16C607.915 454.743 609.238 454.041 610.561 454.041C612.006 454.041 613.153 454.581 613.329 456.174H611.817C611.682 455.526 611.317 455.229 610.561 455.229C609.859 455.229 609.441 455.566 609.441 456.066C609.441 456.579 609.778 456.781 610.899 456.97C612.559 457.227 613.545 457.632 613.545 459.13C613.545 460.561 612.532 461.385 610.723 461.385ZM618.082 461.385C616.057 461.385 614.518 460.062 614.518 457.807V457.699C614.518 455.458 616.111 454.041 618.082 454.041C619.648 454.041 621.12 454.743 621.309 456.687H619.729C619.594 455.742 618.973 455.35 618.109 455.35C616.989 455.35 616.192 456.214 616.192 457.672V457.78C616.192 459.319 616.948 460.129 618.15 460.129C619.014 460.129 619.756 459.616 619.851 458.617H621.349C621.228 460.237 619.999 461.385 618.082 461.385ZM622.756 461.25V450.922H624.39V455.31C624.727 454.621 625.51 454.041 626.671 454.041C628.089 454.041 629.088 454.864 629.088 456.808V461.25H627.454V456.957C627.454 455.89 627.022 455.404 626.05 455.404C625.132 455.404 624.39 455.971 624.39 457.092V461.25H622.756ZM634.075 461.385C631.996 461.385 630.497 460.021 630.497 457.794V457.686C630.497 455.499 631.996 454.041 634.007 454.041C635.762 454.041 637.342 455.08 637.342 457.605V458.077H632.171C632.225 459.414 632.9 460.17 634.115 460.17C635.101 460.17 635.614 459.778 635.735 459.09H637.315C637.085 460.575 635.884 461.385 634.075 461.385ZM632.198 456.984H635.722C635.641 455.769 635.02 455.229 634.007 455.229C633.022 455.229 632.36 455.89 632.198 456.984ZM641.446 461.385C639.678 461.385 638.341 460.129 638.341 457.834V457.726C638.341 455.472 639.678 454.041 641.514 454.041C642.661 454.041 643.377 454.567 643.768 455.269V450.922H645.402V461.25H643.768V460.062C643.39 460.764 642.486 461.385 641.446 461.385ZM641.851 460.089C642.985 460.089 643.822 459.333 643.822 457.753V457.645C643.822 456.093 643.107 455.323 641.919 455.323C640.717 455.323 640.015 456.16 640.015 457.686V457.794C640.015 459.346 640.798 460.089 641.851 460.089ZM649.706 461.385C648.316 461.385 647.276 460.588 647.276 458.712V454.189H648.91V458.523C648.91 459.589 649.355 460.075 650.3 460.075C651.178 460.075 651.947 459.508 651.947 458.388V454.189H653.581V461.25H651.947V460.143C651.596 460.831 650.854 461.385 649.706 461.385ZM655.558 461.25V450.922H657.192V461.25H655.558ZM662.287 461.385C660.208 461.385 658.71 460.021 658.71 457.794V457.686C658.71 455.499 660.208 454.041 662.22 454.041C663.975 454.041 665.554 455.08 665.554 457.605V458.077H660.384C660.438 459.414 661.113 460.17 662.328 460.17C663.313 460.17 663.826 459.778 663.948 459.09H665.527C665.298 460.575 664.096 461.385 662.287 461.385ZM660.411 456.984H663.934C663.853 455.769 663.232 455.229 662.22 455.229C661.234 455.229 660.573 455.89 660.411 456.984ZM671.014 463.666L672.296 460.534L669.502 454.189H671.27L673.147 458.739L674.875 454.189H676.468L672.62 463.666H671.014ZM680.574 461.385C678.495 461.385 676.956 459.94 676.956 457.794V457.686C676.956 455.499 678.508 454.041 680.587 454.041C682.653 454.041 684.205 455.485 684.205 457.645V457.753C684.205 459.954 682.653 461.385 680.574 461.385ZM680.587 460.116C681.802 460.116 682.531 459.211 682.531 457.767V457.672C682.531 456.214 681.802 455.323 680.587 455.323C679.372 455.323 678.63 456.201 678.63 457.659V457.767C678.63 459.211 679.345 460.116 680.587 460.116ZM688.044 461.385C686.653 461.385 685.614 460.588 685.614 458.712V454.189H687.247V458.523C687.247 459.589 687.693 460.075 688.638 460.075C689.515 460.075 690.285 459.508 690.285 458.388V454.189H691.918V461.25H690.285V460.143C689.934 460.831 689.191 461.385 688.044 461.385ZM693.856 461.25V454.189H695.489V455.512C695.935 454.621 696.596 454.095 697.784 454.081V455.607C696.353 455.62 695.489 456.079 695.489 457.578V461.25H693.856ZM702.438 463.666V454.189H704.071V455.323C704.463 454.648 705.34 454.041 706.38 454.041C708.148 454.041 709.512 455.35 709.512 457.632V457.74C709.512 460.008 708.202 461.385 706.38 461.385C705.259 461.385 704.449 460.831 704.071 460.143V463.666H702.438ZM705.975 460.089C707.176 460.089 707.838 459.279 707.838 457.767V457.659C707.838 456.093 707.028 455.323 705.961 455.323C704.827 455.323 704.017 456.093 704.017 457.659V457.767C704.017 459.346 704.787 460.089 705.975 460.089ZM712.831 461.385C711.535 461.385 710.468 460.764 710.468 459.292C710.468 457.645 712.061 457.051 714.086 457.051H714.964V456.687C714.964 455.742 714.64 455.269 713.681 455.269C712.831 455.269 712.412 455.674 712.331 456.376H710.752C710.887 454.729 712.196 454.041 713.776 454.041C715.355 454.041 716.597 454.689 716.597 456.619V461.25H714.991V460.386C714.532 460.993 713.911 461.385 712.831 461.385ZM713.222 460.21C714.221 460.21 714.964 459.684 714.964 458.779V458.077H714.127C712.885 458.077 712.088 458.361 712.088 459.225C712.088 459.819 712.412 460.21 713.222 460.21ZM719.041 463.666L720.324 460.534L717.529 454.189H719.298L721.174 458.739L722.902 454.189H724.495L720.648 463.666H719.041ZM725.72 461.25V454.189H727.354V455.269C727.691 454.608 728.461 454.041 729.5 454.041C730.418 454.041 731.147 454.432 731.498 455.31C732.038 454.432 733.01 454.041 733.888 454.041C735.184 454.041 736.237 454.837 736.237 456.781V461.25H734.603V456.889C734.603 455.85 734.158 455.404 733.348 455.404C732.538 455.404 731.795 455.944 731.795 457.024V461.25H730.162V456.889C730.162 455.85 729.703 455.404 728.906 455.404C728.096 455.404 727.354 455.944 727.354 457.024V461.25H725.72ZM741.217 461.385C739.138 461.385 737.64 460.021 737.64 457.794V457.686C737.64 455.499 739.138 454.041 741.15 454.041C742.905 454.041 744.484 455.08 744.484 457.605V458.077H739.314C739.368 459.414 740.043 460.17 741.258 460.17C742.243 460.17 742.756 459.778 742.878 459.09H744.457C744.228 460.575 743.026 461.385 741.217 461.385ZM739.341 456.984H742.864C742.783 455.769 742.162 455.229 741.15 455.229C740.164 455.229 739.503 455.89 739.341 456.984ZM745.944 461.25V454.189H747.577V455.31C747.915 454.621 748.698 454.041 749.859 454.041C751.275 454.041 752.272 454.864 752.272 456.808V461.25H750.645V456.957C750.645 455.89 750.21 455.404 749.238 455.404C748.32 455.404 747.577 455.971 747.577 457.092V461.25H745.944ZM756.562 461.371C755.16 461.371 754.425 460.615 754.425 459.279V455.418H753.48V454.189H754.425V452.637H756.06V454.189H757.612V455.418H756.06V459.13C756.06 459.751 756.36 460.035 756.87 460.035C757.192 460.035 757.44 459.994 757.665 459.9V461.196C757.41 461.29 757.057 461.371 756.562 461.371ZM761.595 461.385C759.772 461.385 758.707 460.548 758.64 459.049H760.177C760.26 459.765 760.627 460.183 761.58 460.183C762.457 460.183 762.855 459.873 762.855 459.279C762.855 458.698 762.382 458.482 761.34 458.307C759.48 458.01 758.79 457.483 758.79 456.16C758.79 454.743 760.11 454.041 761.437 454.041C762.877 454.041 764.025 454.581 764.205 456.174H762.69C762.555 455.526 762.187 455.229 761.437 455.229C760.732 455.229 760.312 455.566 760.312 456.066C760.312 456.579 760.65 456.781 761.775 456.97C763.432 457.227 764.415 457.632 764.415 459.13C764.415 460.561 763.402 461.385 761.595 461.385ZM770.917 461.385C769.62 461.385 768.555 460.764 768.555 459.292C768.555 457.645 770.145 457.051 772.17 457.051H773.047V456.687C773.047 455.742 772.725 455.269 771.765 455.269C770.917 455.269 770.497 455.674 770.415 456.376H768.84C768.975 454.729 770.28 454.041 771.862 454.041C773.445 454.041 774.682 454.689 774.682 456.619V461.25H773.077V460.386C772.62 460.993 771.997 461.385 770.917 461.385ZM771.307 460.21C772.305 460.21 773.047 459.684 773.047 458.779V458.077H772.215C770.97 458.077 770.175 458.361 770.175 459.225C770.175 459.819 770.497 460.21 771.307 460.21ZM776.557 461.25V454.189H778.192V455.31C778.53 454.621 779.31 454.041 780.472 454.041C781.89 454.041 782.887 454.864 782.887 456.808V461.25H781.252V456.957C781.252 455.89 780.825 455.404 779.85 455.404C778.935 455.404 778.192 455.971 778.192 457.092V461.25H776.557ZM787.417 461.385C785.647 461.385 784.312 460.129 784.312 457.834V457.726C784.312 455.472 785.647 454.041 787.485 454.041C788.632 454.041 789.345 454.567 789.735 455.269V450.922H791.37V461.25H789.735V460.062C789.36 460.764 788.452 461.385 787.417 461.385ZM787.822 460.089C788.955 460.089 789.795 459.333 789.795 457.753V457.645C789.795 456.093 789.075 455.323 787.89 455.323C786.69 455.323 785.985 456.16 785.985 457.686V457.794C785.985 459.346 786.765 460.089 787.822 460.089ZM800.475 461.385C799.35 461.385 798.54 460.831 798.165 460.116V461.25H796.53V450.922H798.165V455.323C798.555 454.648 799.432 454.041 800.475 454.041C802.237 454.041 803.602 455.35 803.602 457.632V457.74C803.602 460.008 802.297 461.385 800.475 461.385ZM800.07 460.089C801.27 460.089 801.93 459.279 801.93 457.767V457.659C801.93 456.093 801.12 455.323 800.055 455.323C798.922 455.323 798.112 456.093 798.112 457.659V457.767C798.112 459.346 798.877 460.089 800.07 460.089ZM805.912 453.028C805.372 453.028 804.937 452.623 804.937 452.097C804.937 451.557 805.372 451.152 805.912 451.152C806.452 451.152 806.88 451.557 806.88 452.097C806.88 452.623 806.452 453.028 805.912 453.028ZM805.11 461.25V454.189H806.745V461.25H805.11ZM808.777 461.25V450.922H810.412V461.25H808.777ZM812.445 461.25V450.922H814.08V461.25H812.445ZM818.482 461.385C816.66 461.385 815.595 460.548 815.527 459.049H817.065C817.147 459.765 817.515 460.183 818.467 460.183C819.345 460.183 819.742 459.873 819.742 459.279C819.742 458.698 819.27 458.482 818.227 458.307C816.367 458.01 815.677 457.483 815.677 456.16C815.677 454.743 816.997 454.041 818.325 454.041C819.765 454.041 820.912 454.581 821.092 456.174H819.577C819.442 455.526 819.075 455.229 818.325 455.229C817.62 455.229 817.2 455.566 817.2 456.066C817.2 456.579 817.537 456.781 818.662 456.97C820.32 457.227 821.302 457.632 821.302 459.13C821.302 460.561 820.29 461.385 818.482 461.385ZM828.375 461.385C826.552 461.385 825.48 460.548 825.412 459.049H826.957C827.032 459.765 827.4 460.183 828.36 460.183C829.237 460.183 829.627 459.873 829.627 459.279C829.627 458.698 829.155 458.482 828.112 458.307C826.252 458.01 825.562 457.483 825.562 456.16C825.562 454.743 826.89 454.041 828.21 454.041C829.657 454.041 830.805 454.581 830.977 456.174H829.462C829.327 455.526 828.967 455.229 828.21 455.229C827.505 455.229 827.092 455.566 827.092 456.066C827.092 456.579 827.43 456.781 828.547 456.97C830.205 457.227 831.195 457.632 831.195 459.13C831.195 460.561 830.182 461.385 828.375 461.385ZM835.747 461.385C833.662 461.385 832.17 460.021 832.17 457.794V457.686C832.17 455.499 833.662 454.041 835.68 454.041C837.435 454.041 839.01 455.08 839.01 457.605V458.077H833.842C833.895 459.414 834.57 460.17 835.785 460.17C836.767 460.17 837.285 459.778 837.405 459.09H838.987C838.755 460.575 837.555 461.385 835.747 461.385ZM833.865 456.984H837.39C837.307 455.769 836.692 455.229 835.68 455.229C834.69 455.229 834.03 455.89 833.865 456.984ZM842.385 461.385C841.087 461.385 840.022 460.764 840.022 459.292C840.022 457.645 841.612 457.051 843.637 457.051H844.515V456.687C844.515 455.742 844.192 455.269 843.232 455.269C842.385 455.269 841.965 455.674 841.882 456.376H840.307C840.442 454.729 841.747 454.041 843.33 454.041C844.912 454.041 846.15 454.689 846.15 456.619V461.25H844.545V460.386C844.087 460.993 843.465 461.385 842.385 461.385ZM842.775 460.21C843.772 460.21 844.515 459.684 844.515 458.779V458.077H843.682C842.437 458.077 841.642 458.361 841.642 459.225C841.642 459.819 841.965 460.21 842.775 460.21ZM848.025 461.25V454.189H849.66V455.269C849.997 454.608 850.762 454.041 851.805 454.041C852.72 454.041 853.455 454.432 853.8 455.31C854.34 454.432 855.315 454.041 856.192 454.041C857.49 454.041 858.54 454.837 858.54 456.781V461.25H856.905V456.889C856.905 455.85 856.462 455.404 855.652 455.404C854.842 455.404 854.1 455.944 854.1 457.024V461.25H852.465V456.889C852.465 455.85 852.007 455.404 851.212 455.404C850.402 455.404 849.66 455.944 849.66 457.024V461.25H848.025ZM860.46 461.25V450.922H862.087V461.25H860.46ZM867.187 461.385C865.11 461.385 863.61 460.021 863.61 457.794V457.686C863.61 455.499 865.11 454.041 867.12 454.041C868.875 454.041 870.457 455.08 870.457 457.605V458.077H865.282C865.335 459.414 866.01 460.17 867.225 460.17C868.215 460.17 868.725 459.778 868.845 459.09H870.427C870.195 460.575 868.995 461.385 867.187 461.385ZM865.312 456.984H868.837C868.755 455.769 868.132 455.229 867.12 455.229C866.137 455.229 865.47 455.89 865.312 456.984ZM874.395 461.385C872.572 461.385 871.507 460.548 871.44 459.049H872.977C873.06 459.765 873.42 460.183 874.38 460.183C875.257 460.183 875.647 459.873 875.647 459.279C875.647 458.698 875.175 458.482 874.14 458.307C872.272 458.01 871.59 457.483 871.59 456.16C871.59 454.743 872.91 454.041 874.23 454.041C875.677 454.041 876.825 454.581 876.997 456.174H875.49C875.355 455.526 874.987 455.229 874.23 455.229C873.532 455.229 873.112 455.566 873.112 456.066C873.112 456.579 873.45 456.781 874.567 456.97C876.232 457.227 877.215 457.632 877.215 459.13C877.215 460.561 876.202 461.385 874.395 461.385ZM881.077 461.385C879.255 461.385 878.19 460.548 878.122 459.049H879.66C879.742 459.765 880.11 460.183 881.062 460.183C881.94 460.183 882.337 459.873 882.337 459.279C882.337 458.698 881.865 458.482 880.822 458.307C878.962 458.01 878.272 457.483 878.272 456.16C878.272 454.743 879.592 454.041 880.92 454.041C882.36 454.041 883.507 454.581 883.687 456.174H882.172C882.037 455.526 881.67 455.229 880.92 455.229C880.215 455.229 879.795 455.566 879.795 456.066C879.795 456.579 880.132 456.781 881.257 456.97C882.915 457.227 883.897 457.632 883.897 459.13C883.897 460.561 882.885 461.385 881.077 461.385ZM885.375 461.25V450.922H887.01V461.25H885.375ZM889.785 463.666L891.067 460.534L888.27 454.189H890.04L891.915 458.739L893.64 454.189H895.237L891.39 463.666H889.785ZM504.784 478.5L502.624 471.439H504.366L505.77 476.542L507.268 471.439H508.632L510.009 476.542L511.48 471.439H513.073L510.859 478.5H509.199L507.889 473.748L506.458 478.5H504.784ZM515.158 470.278C514.618 470.278 514.186 469.873 514.186 469.347C514.186 468.807 514.618 468.402 515.158 468.402C515.698 468.402 516.13 468.807 516.13 469.347C516.13 469.873 515.698 470.278 515.158 470.278ZM514.362 478.5V471.439H515.995V478.5H514.362ZM520.39 478.621C518.986 478.621 518.257 477.865 518.257 476.529V472.668H517.312V471.439H518.257V469.887H519.89V471.439H521.443V472.668H519.89V476.38C519.89 477.001 520.187 477.285 520.7 477.285C521.024 477.285 521.267 477.244 521.497 477.15V478.446C521.24 478.54 520.889 478.621 520.39 478.621ZM522.97 478.5V468.172H524.603V472.56C524.941 471.871 525.724 471.291 526.885 471.291C528.302 471.291 529.301 472.114 529.301 474.058V478.5H527.668V474.207C527.668 473.14 527.236 472.654 526.264 472.654C525.346 472.654 524.603 473.221 524.603 474.342V478.5H522.97ZM536.816 478.635C534.994 478.635 533.927 477.798 533.86 476.299H535.399C535.48 477.015 535.844 477.433 536.803 477.433C537.68 477.433 538.072 477.123 538.072 476.529C538.072 475.948 537.599 475.732 536.56 475.557C534.697 475.26 534.008 474.733 534.008 473.41C534.008 471.993 535.331 471.291 536.654 471.291C538.099 471.291 539.246 471.831 539.422 473.424H537.91C537.775 472.776 537.41 472.479 536.654 472.479C535.952 472.479 535.534 472.816 535.534 473.316C535.534 473.829 535.871 474.031 536.992 474.22C538.652 474.477 539.638 474.882 539.638 476.38C539.638 477.811 538.625 478.635 536.816 478.635ZM541.071 478.5V471.439H542.704V472.519C543.042 471.858 543.811 471.291 544.851 471.291C545.769 471.291 546.498 471.682 546.849 472.56C547.389 471.682 548.361 471.291 549.238 471.291C550.534 471.291 551.587 472.087 551.587 474.031V478.5H549.954V474.139C549.954 473.1 549.508 472.654 548.698 472.654C547.888 472.654 547.146 473.194 547.146 474.274V478.5H545.512V474.139C545.512 473.1 545.053 472.654 544.257 472.654C543.447 472.654 542.704 473.194 542.704 474.274V478.5H541.071ZM555.313 478.635C554.017 478.635 552.95 478.014 552.95 476.542C552.95 474.895 554.543 474.301 556.568 474.301H557.446V473.937C557.446 472.992 557.122 472.519 556.163 472.519C555.313 472.519 554.894 472.924 554.813 473.626H553.234C553.369 471.979 554.678 471.291 556.258 471.291C557.837 471.291 559.079 471.939 559.079 473.869V478.5H557.473V477.636C557.014 478.243 556.393 478.635 555.313 478.635ZM555.704 477.46C556.703 477.46 557.446 476.934 557.446 476.029V475.327H556.609C555.367 475.327 554.57 475.611 554.57 476.475C554.57 477.069 554.894 477.46 555.704 477.46ZM560.952 478.5V471.439H562.585V472.762C563.031 471.871 563.692 471.345 564.88 471.331V472.857C563.449 472.87 562.585 473.329 562.585 474.828V478.5H560.952ZM569.183 481.092C566.969 481.092 565.97 480.093 565.781 478.743H567.428C567.563 479.445 568.103 479.85 569.17 479.85C570.439 479.85 571.141 479.215 571.141 477.946V476.907C570.749 477.582 569.872 478.216 568.832 478.216C567.064 478.216 565.7 476.893 565.7 474.855V474.76C565.7 472.776 567.05 471.291 568.873 471.291C570.034 471.291 570.736 471.817 571.141 472.519V471.439H572.774V477.973C572.761 480.052 571.37 481.092 569.183 481.092ZM569.237 476.961C570.371 476.961 571.195 476.151 571.195 474.801V474.706C571.195 473.37 570.466 472.573 569.291 472.573C568.076 472.573 567.374 473.451 567.374 474.733V474.841C567.374 476.151 568.184 476.961 569.237 476.961ZM575.687 478.594C575.093 478.594 574.621 478.135 574.621 477.541C574.621 476.947 575.093 476.475 575.687 476.475C576.295 476.475 576.767 476.947 576.767 477.541C576.767 478.135 576.295 478.594 575.687 478.594Z" fill="#09092A"/>
<g filter="url(#filter1_d_461_1137)">
<path d="M601.125 510H478.875C470.591 510 463.875 516.716 463.875 525V554.25C463.875 562.534 470.591 569.25 478.875 569.25H601.125C609.409 569.25 616.125 562.534 616.125 554.25V525C616.125 516.716 609.409 510 601.125 510Z" fill="#F9FAFA"/>
<path d="M490.841 547.662C489.635 547.662 489.023 547.482 488.501 547.23V544.476C488.933 544.62 489.329 544.728 490.067 544.728C491.075 544.728 491.741 544.278 491.741 542.946V534.63H495.449V542.982C495.449 546.078 493.865 547.662 490.841 547.662ZM501.978 547.716C499.08 547.716 496.83 545.952 496.83 542.91V542.766C496.83 539.742 499.08 537.834 501.996 537.834C504.894 537.834 507.126 539.688 507.126 542.676V542.82C507.126 545.88 504.876 547.716 501.978 547.716ZM501.996 545.322C503.202 545.322 503.85 544.422 503.85 542.856V542.712C503.85 541.128 503.22 540.246 501.996 540.246C500.79 540.246 500.124 541.092 500.124 542.676V542.82C500.124 544.44 500.754 545.322 501.996 545.322ZM510.224 537.186C509.216 537.186 508.46 536.484 508.46 535.53C508.46 534.576 509.216 533.856 510.224 533.856C511.232 533.856 512.006 534.576 512.006 535.53C512.006 536.484 511.232 537.186 510.224 537.186ZM508.622 547.5V538.086H511.844V547.5H508.622ZM513.84 547.5V538.086H517.062V539.598C517.566 538.626 518.592 537.834 520.158 537.834C521.976 537.834 523.236 538.968 523.236 541.38V547.5H520.014V542.028C520.014 540.966 519.6 540.444 518.664 540.444C517.71 540.444 517.062 541.02 517.062 542.226V547.5H513.84ZM530.675 547.5L527.831 538.086H531.197L532.565 543.72L534.149 538.086H536.741L538.145 543.72L539.675 538.086H542.735L539.747 547.5H536.669L535.265 542.244L533.807 547.5H530.675ZM546.122 547.716C544.43 547.716 542.936 546.888 542.936 544.89C542.936 542.676 544.808 541.812 547.94 541.812H548.84V541.596C548.84 540.696 548.624 540.102 547.598 540.102C546.716 540.102 546.392 540.624 546.32 541.218H543.296C543.44 538.95 545.222 537.834 547.796 537.834C550.388 537.834 552.044 538.896 552.044 541.398V547.5H548.912V546.402C548.462 547.086 547.634 547.716 546.122 547.716ZM547.238 545.538C548.156 545.538 548.84 545.016 548.84 544.206V543.63H547.994C546.698 543.63 546.122 543.882 546.122 544.656C546.122 545.196 546.482 545.538 547.238 545.538ZM555.575 537.186C554.567 537.186 553.811 536.484 553.811 535.53C553.811 534.576 554.567 533.856 555.575 533.856C556.583 533.856 557.357 534.576 557.357 535.53C557.357 536.484 556.583 537.186 555.575 537.186ZM553.973 547.5V538.086H557.195V547.5H553.973ZM562.935 547.716C560.811 547.716 559.623 546.69 559.623 544.476V540.282H558.489V538.086H559.623V536.124H562.845V538.086H564.699V540.282H562.845V544.17C562.845 544.854 563.187 545.16 563.799 545.16C564.159 545.16 564.429 545.106 564.717 544.998V547.446C564.303 547.554 563.691 547.716 562.935 547.716ZM566.278 547.5V533.946H569.482V547.5H566.278ZM573.17 537.186C572.162 537.186 571.406 536.484 571.406 535.53C571.406 534.576 572.162 533.856 573.17 533.856C574.178 533.856 574.952 534.576 574.952 535.53C574.952 536.484 574.178 537.186 573.17 537.186ZM571.568 547.5V538.086H574.79V547.5H571.568ZM580.477 547.716C577.795 547.716 576.229 546.6 576.157 544.512H579.127C579.235 545.196 579.541 545.574 580.459 545.574C581.251 545.574 581.611 545.268 581.611 544.8C581.611 544.35 581.161 544.134 579.865 543.954C577.345 543.63 576.283 542.892 576.283 540.93C576.283 538.842 578.137 537.834 580.315 537.834C582.637 537.834 584.257 538.626 584.473 540.876H581.557C581.431 540.246 581.089 539.94 580.351 539.94C579.649 539.94 579.289 540.246 579.289 540.678C579.289 541.128 579.721 541.308 580.873 541.452C583.483 541.776 584.743 542.46 584.743 544.476C584.743 546.708 583.087 547.716 580.477 547.716ZM589.795 547.716C587.671 547.716 586.483 546.69 586.483 544.476V540.282H585.349V538.086H586.483V536.124H589.705V538.086H591.559V540.282H589.705V544.17C589.705 544.854 590.047 545.16 590.659 545.16C591.019 545.16 591.289 545.106 591.577 544.998V547.446C591.163 547.554 590.551 547.716 589.795 547.716Z" fill="#09092A"/>
<path d="M601.125 510.375H478.875C470.798 510.375 464.25 516.923 464.25 525V554.25C464.25 562.327 470.798 568.875 478.875 568.875H601.125C609.202 568.875 615.75 562.327 615.75 554.25V525C615.75 516.923 609.202 510.375 601.125 510.375Z" stroke="#09092A" stroke-width="0.75"/>
</g>
</g>
<defs>
<filter id="filter0_d_461_1137" x="893.25" y="29.625" width="116.25" height="44.25" filterUnits="userSpaceOnUse" color-interpolation-filters="sRGB">
<feFlood flood-opacity="0" result="BackgroundImageFix"/>
<feColorMatrix in="SourceAlpha" type="matrix" values="0 0 0 0 0 0 0 0 0 0 0 0 0 0 0 0 0 0 127 0" result="hardAlpha"/>
<feOffset dx="1.5" dy="3"/>
<feComposite in2="hardAlpha" operator="out"/>
<feColorMatrix type="matrix" values="0 0 0 0 0.0352941 0 0 0 0 0.0352941 0 0 0 0 0.164706 0 0 0 1 0"/>
<feBlend mode="normal" in2="BackgroundImageFix" result="effect1_dropShadow_461_1137"/>
<feBlend mode="normal" in="SourceGraphic" in2="effect1_dropShadow_461_1137" result="shape"/>
</filter>
<filter id="filter1_d_461_1137" x="463.875" y="510" width="153.75" height="62.25" filterUnits="userSpaceOnUse" color-interpolation-filters="sRGB">
<feFlood flood-opacity="0" result="BackgroundImageFix"/>
<feColorMatrix in="SourceAlpha" type="matrix" values="0 0 0 0 0 0 0 0 0 0 0 0 0 0 0 0 0 0 127 0" result="hardAlpha"/>
<feOffset dx="1.5" dy="3"/>
<feComposite in2="hardAlpha" operator="out"/>
<feColorMatrix type="matrix" values="0 0 0 0 0.0352941 0 0 0 0 0.0352941 0 0 0 0 0.164706 0 0 0 1 0"/>
<feBlend mode="normal" in2="BackgroundImageFix" result="effect1_dropShadow_461_1137"/>
<feBlend mode="normal" in="SourceGraphic" in2="effect1_dropShadow_461_1137" result="shape"/>
</filter>
<radialGradient id="paint0_radial_461_1137" cx="0" cy="0" r="1" gradientUnits="userSpaceOnUse" gradientTransform="translate(564 835.5) rotate(-64.3687) scale(874.695 9016.27)">
<stop stop-color="#CCE5FF"/>
<stop offset="0.530382" stop-color="#D6EAFF"/>
<stop offset="0.978731" stop-color="#CCE5FF"/>
</radialGradient>
<clipPath id="clip0_461_1137">
<rect width="1080" height="768" fill="white"/>
</clipPath>
</defs>
</svg>
