<svg width="154" height="156" viewBox="0 0 154 156" fill="none" xmlns="http://www.w3.org/2000/svg">
<g filter="url(#filter0_d_45_57)">
<path d="M73.0744 1.85879C73.6207 -0.0870948 76.3793 -0.0870938 76.9256 1.85879L92.2327 56.3824C92.4212 57.054 92.946 57.5788 93.6176 57.7673L148.141 73.0744C150.087 73.6207 150.087 76.3793 148.141 76.9256L93.6176 92.2327C92.946 92.4212 92.4212 92.946 92.2327 93.6176L76.9256 148.141C76.3793 150.087 73.6207 150.087 73.0744 148.141L57.7673 93.6176C57.5788 92.946 57.054 92.4212 56.3824 92.2327L1.85879 76.9256C-0.0870948 76.3793 -0.0870938 73.6207 1.85879 73.0744L56.3824 57.7673C57.054 57.5788 57.5788 57.054 57.7673 56.3824L73.0744 1.85879Z" fill="#2FFF2F"/>
<path d="M74.0372 2.12908C74.3104 1.15614 75.6896 1.15614 75.9628 2.12908L91.2699 56.6527C91.5527 57.6601 92.34 58.4473 93.3473 58.7301L147.871 74.0372C148.844 74.3104 148.844 75.6896 147.871 75.9628L93.3473 91.2699C92.34 91.5527 91.5527 92.34 91.2699 93.3473L75.9628 147.871C75.6896 148.844 74.3104 148.844 74.0372 147.871L58.7301 93.3473C58.4473 92.34 57.6601 91.5527 56.6527 91.2699L2.12908 75.9628C1.15614 75.6896 1.15614 74.3104 2.12908 74.0372L56.6527 58.7301C57.6601 58.4473 58.4473 57.6601 58.7301 56.6527L74.0372 2.12908Z" stroke="#0D0D0D" stroke-width="2"/>
</g>
<defs>
<filter id="filter0_d_45_57" x="0.399414" y="0.399414" width="153.201" height="155.201" filterUnits="userSpaceOnUse" color-interpolation-filters="sRGB">
<feFlood flood-opacity="0" result="BackgroundImageFix"/>
<feColorMatrix in="SourceAlpha" type="matrix" values="0 0 0 0 0 0 0 0 0 0 0 0 0 0 0 0 0 0 127 0" result="hardAlpha"/>
<feOffset dx="4" dy="6"/>
<feComposite in2="hardAlpha" operator="out"/>
<feColorMatrix type="matrix" values="0 0 0 0 0 0 0 0 0 0 0 0 0 0 0 0 0 0 1 0"/>
<feBlend mode="normal" in2="BackgroundImageFix" result="effect1_dropShadow_45_57"/>
<feBlend mode="normal" in="SourceGraphic" in2="effect1_dropShadow_45_57" result="shape"/>
</filter>
</defs>
</svg>
