<svg width="116" height="118" viewBox="0 0 116 118" fill="none" xmlns="http://www.w3.org/2000/svg">
<g filter="url(#filter0_d_40_1712)">
<path d="M55.0191 0.952886C55.2318 -0.121405 56.7682 -0.121406 56.9809 0.952885L62.438 28.5063C62.5993 29.3203 63.6247 29.5951 64.1714 28.9707L82.674 7.83733C83.3954 7.01335 84.726 7.78153 84.3731 8.81827L75.3224 35.4087C75.055 36.1944 75.8056 36.945 76.5913 36.6776L103.182 27.6269C104.218 27.274 104.987 28.6046 104.163 29.326L83.0293 47.8286C82.4049 48.3753 82.6797 49.4007 83.4937 49.562L111.047 55.0191C112.121 55.2318 112.121 56.7682 111.047 56.9809L83.4937 62.438C82.6797 62.5993 82.4049 63.6247 83.0293 64.1714L104.163 82.674C104.987 83.3954 104.218 84.726 103.182 84.3731L76.5913 75.3224C75.8056 75.055 75.055 75.8056 75.3224 76.5913L84.3731 103.182C84.726 104.218 83.3954 104.987 82.674 104.163L64.1714 83.0293C63.6247 82.4049 62.5993 82.6797 62.438 83.4937L56.9809 111.047C56.7682 112.121 55.2318 112.121 55.0191 111.047L49.562 83.4937C49.4007 82.6797 48.3753 82.4049 47.8286 83.0293L29.326 104.163C28.6046 104.987 27.274 104.218 27.6269 103.182L36.6776 76.5913C36.945 75.8056 36.1944 75.055 35.4087 75.3224L8.81828 84.3731C7.78153 84.726 7.01335 83.3954 7.83733 82.674L28.9707 64.1714C29.5951 63.6247 29.3203 62.5993 28.5063 62.438L0.952886 56.9809C-0.121405 56.7682 -0.121406 55.2318 0.952885 55.0191L28.5063 49.562C29.3203 49.4007 29.5951 48.3753 28.9707 47.8286L7.83733 29.326C7.01335 28.6046 7.78153 27.274 8.81827 27.6269L35.4087 36.6776C36.1944 36.945 36.945 36.1944 36.6776 35.4087L27.6269 8.81828C27.274 7.78153 28.6046 7.01335 29.326 7.83733L47.8286 28.9707C48.3753 29.5951 49.4007 29.3203 49.562 28.5063L55.0191 0.952886Z" fill="#F7E5FD"/>
<path d="M56 1.14717L61.4571 28.7005C61.7796 30.3287 63.8304 30.8782 64.9238 29.6294L83.4264 8.49605L74.3757 35.0865C73.8409 36.6578 75.3422 38.1591 76.9135 37.6243L103.504 28.5736L82.3706 47.0762C81.1218 48.1696 81.6713 50.2204 83.2995 50.5429L110.853 56L83.2995 61.4571C81.6713 61.7796 81.1218 63.8304 82.3706 64.9238L103.504 83.4264L76.9135 74.3757C75.3422 73.8409 73.8409 75.3422 74.3757 76.9135L83.4264 103.504L64.9238 82.3706C63.8304 81.1218 61.7796 81.6713 61.4571 83.2995L56 110.853L50.5429 83.2995C50.2204 81.6713 48.1696 81.1218 47.0762 82.3706L28.5736 103.504L37.6243 76.9135C38.1591 75.3422 36.6578 73.8409 35.0865 74.3757L8.49605 83.4264L29.6294 64.9238C30.8782 63.8304 30.3287 61.7796 28.7005 61.4571L1.14717 56L28.7005 50.5429C30.3287 50.2204 30.8782 48.1696 29.6294 47.0762L8.49605 28.5736L35.0865 37.6243C36.6578 38.1591 38.1591 36.6578 37.6243 35.0865L28.5736 8.49606L47.0762 29.6294C48.1696 30.8782 50.2204 30.3287 50.5429 28.7005L56 1.14717Z" stroke="#0D0D0D" stroke-width="2"/>
</g>
<defs>
<filter id="filter0_d_40_1712" x="0.147217" y="0.146973" width="115.706" height="117.706" filterUnits="userSpaceOnUse" color-interpolation-filters="sRGB">
<feFlood flood-opacity="0" result="BackgroundImageFix"/>
<feColorMatrix in="SourceAlpha" type="matrix" values="0 0 0 0 0 0 0 0 0 0 0 0 0 0 0 0 0 0 127 0" result="hardAlpha"/>
<feOffset dx="4" dy="6"/>
<feComposite in2="hardAlpha" operator="out"/>
<feColorMatrix type="matrix" values="0 0 0 0 0 0 0 0 0 0 0 0 0 0 0 0 0 0 1 0"/>
<feBlend mode="normal" in2="BackgroundImageFix" result="effect1_dropShadow_40_1712"/>
<feBlend mode="normal" in="SourceGraphic" in2="effect1_dropShadow_40_1712" result="shape"/>
</filter>
</defs>
</svg>
