<svg width="136" height="136" viewBox="0 0 136 136" fill="none" xmlns="http://www.w3.org/2000/svg">
<g filter="url(#filter0_d_26_769)">
<path d="M43.0356 56.1582C48.2599 42.7062 57.817 36.8561 71.707 38.6079C92.5419 41.2357 93.1755 57.1903 103.265 61.1086C109.991 63.7207 116.396 61.8828 122.48 55.5948C117.256 69.0468 107.699 74.8968 93.8091 73.145C72.9741 70.5173 72.3406 54.5626 62.2516 50.6444C55.5255 48.0322 49.1202 49.8701 43.0356 56.1582ZM13.0503 84.1259C18.2746 70.6739 27.8317 64.8238 41.7217 66.5757C62.5566 69.2034 63.1902 85.1581 73.2792 89.0763C80.0052 91.6885 86.4105 89.8505 92.4952 83.5625C87.2709 97.0145 77.7137 102.865 63.8238 101.113C42.9888 98.485 42.3553 82.5303 32.2663 78.6121C25.5403 75.9999 19.1349 77.8379 13.0503 84.1259Z" fill="#44A8B3"/>
<path d="M52.1272 49.1025C49.9912 49.7154 47.9132 50.7853 45.8912 52.2912C48.2187 47.9112 51.1441 44.6767 54.6437 42.5345C59.1844 39.7551 64.8047 38.7453 71.5819 39.6001C81.6828 40.874 86.8383 45.3448 90.7487 50.0162C91.6968 51.1489 92.5706 52.2923 93.4334 53.4215L93.5449 53.5674C94.4386 54.7368 95.3261 55.8931 96.2505 56.9631C98.1019 59.1061 100.161 60.9762 102.902 62.0408C106.451 63.419 109.958 63.6348 113.389 62.6505C115.525 62.0376 117.603 60.9677 119.625 59.4618C117.297 63.8417 114.372 67.0762 110.872 69.2184C106.332 71.9978 100.711 73.0076 93.9342 72.1529C83.8333 70.8789 78.6778 66.4081 74.7674 61.7367C73.8193 60.6042 72.9457 59.4609 72.083 58.3319L71.9711 58.1855C71.0774 57.0161 70.19 55.8599 69.2655 54.7898C67.4141 52.6468 65.3546 50.7767 62.6136 49.7122C59.0648 48.334 55.5577 48.1181 52.1272 49.1025ZM22.1419 77.0702C20.0059 77.6831 17.9279 78.753 15.9059 80.2589C18.2334 75.8789 21.1588 72.6445 24.6584 70.5023C29.1991 67.7228 34.8194 66.7131 41.5966 67.5678C51.6975 68.8418 56.853 73.3126 60.7634 77.9839C61.7114 79.1165 62.585 80.2597 63.4477 81.3887L63.5596 81.5352C64.4534 82.7046 65.3408 83.8608 66.2653 84.9309C68.1167 87.0739 70.1761 88.944 72.9172 90.0085C76.466 91.3867 79.973 91.6025 83.4035 90.6182C85.5395 90.0053 87.6176 88.9354 89.6396 87.4295C87.3121 91.8095 84.3867 95.044 80.887 97.1862C76.3464 99.9656 70.7261 100.975 63.9489 100.121C53.848 98.8467 48.6925 94.3758 44.7821 89.7045C43.8341 88.572 42.9604 87.4287 42.0977 86.2997L41.9858 86.1532C41.0921 84.9839 40.2047 83.8276 39.2802 82.7576C37.4288 80.6146 35.3693 78.7445 32.6283 77.6799C29.0795 76.3017 25.5724 76.0859 22.1419 77.0702Z" stroke="#0D0D0D" stroke-width="2"/>
</g>
<defs>
<filter id="filter0_d_26_769" x="13.0503" y="38.3052" width="113.43" height="69.1104" filterUnits="userSpaceOnUse" color-interpolation-filters="sRGB">
<feFlood flood-opacity="0" result="BackgroundImageFix"/>
<feColorMatrix in="SourceAlpha" type="matrix" values="0 0 0 0 0 0 0 0 0 0 0 0 0 0 0 0 0 0 127 0" result="hardAlpha"/>
<feOffset dx="4" dy="6"/>
<feComposite in2="hardAlpha" operator="out"/>
<feColorMatrix type="matrix" values="0 0 0 0 0 0 0 0 0 0 0 0 0 0 0 0 0 0 1 0"/>
<feBlend mode="normal" in2="BackgroundImageFix" result="effect1_dropShadow_26_769"/>
<feBlend mode="normal" in="SourceGraphic" in2="effect1_dropShadow_26_769" result="shape"/>
</filter>
</defs>
</svg>
